<?xml version="1.0" encoding="UTF-8"?>
<svg width="420px" height="143px" viewBox="0 0 420 143" version="1.1" xmlns="http://www.w3.org/2000/svg" xmlns:xlink="http://www.w3.org/1999/xlink">
    <!-- Generator: Sketch 41.2 (35397) - http://www.bohemiancoding.com/sketch -->
    <title>Page 1</title>
    <desc>Created with Sketch.</desc>
    <defs>
        <polygon id="path-1" points="7.2788509e-21 0.143803371 7.2788509e-21 59.2842116 74.1137801 59.2842116 74.1137801 0.143803371 0 0.143803371"></polygon>
        <polygon id="path-3" points="38.4067718 0.354018727 0.266769821 0.354018727 0.266769821 60.1434434 38.4067718 60.1434434 38.4067718 0.354018727"></polygon>
        <polygon id="path-5" points="0.148879795 60.5205993 66.5400307 60.5205993 66.5400307 0.312297004 0.148879795 0.312297004"></polygon>
    </defs>
    <g id="Website-1.3" stroke="none" stroke-width="1" fill="none" fill-rule="evenodd">
        <g id="Capital" transform="translate(-510.000000, -386.000000)">
            <g id="Page-1" transform="translate(510.000000, 386.000000)">
                <g id="Group-3" transform="translate(0.000000, 0.717142)">
                    <mask id="mask-2" fill="white">
                        <use xlink:href="#path-1"></use>
                    </mask>
                    <g id="Clip-2"></g>
                    <path d="M11.1255959,25.1875487 L50.0642148,25.1875487 C59.8799693,25.1875487 62.9064399,23.8818034 62.9064399,17.0301217 C62.9064399,11.3202978 60.7801228,8.954103 50.472399,8.954103 L11.1255959,8.954103 L11.1255959,25.1875487 Z M49.4916829,34.0776498 L10.8790742,34.0776498 L10.8790742,50.473912 L50.6367468,50.473912 C61.4348286,50.473912 62.9886138,48.189661 62.9886138,42.7256685 C62.9886138,36.4422378 60.9433964,34.0776498 49.4916829,34.0776498 L49.4916829,34.0776498 Z M49.9820409,59.2842116 L3.76270588,59.2842116 C1.22713043,59.2842116 -0.00010741688,57.9784663 -0.00010741688,55.4510618 L-0.00010741688,3.89500936 C-0.00010741688,1.36760487 1.22713043,0.143803371 3.76270588,0.143803371 L49.327335,0.143803371 C63.5611458,0.143803371 73.3769003,3.48796816 73.3769003,17.1120655 C73.3769003,22.8218895 71.6593043,27.0642228 65.8512737,29.9194026 C70.8413248,31.7939345 74.1137801,35.1386348 74.1137801,42.3978933 C74.1137801,56.347088 62.0884604,59.2842116 49.9820409,59.2842116 L49.9820409,59.2842116 Z" id="Fill-1" fill="#FEFEFE" mask="url(#mask-2)"></path>
                </g>
                <path d="M132.93999,28.1067839 C132.93999,24.7626191 129.013903,22.1511285 119.852317,22.1511285 L102.673673,22.1511285 C93.5110128,22.1511285 89.5849258,24.7626191 89.5849258,28.1067839 L89.5849258,45.8061135 C89.5849258,49.0704768 93.5110128,51.7617689 102.673673,51.7617689 L119.852317,51.7617689 C129.013903,51.7617689 132.93999,49.0704768 132.93999,45.8061135 L132.93999,28.1067839 Z M102.346051,13.9117577 L120.178864,13.9117577 C135.558813,13.9117577 143.328813,18.5616678 143.328813,28.1067839 L143.328813,45.8061135 C143.328813,55.2698213 135.558813,60.0011397 120.178864,60.0011397 L102.346051,60.0011397 C86.9671765,60.0011397 79.1950281,55.2698213 79.1950281,45.8061135 L79.1950281,28.1067839 C79.1950281,18.5616678 86.9671765,13.9117577 102.346051,13.9117577 L102.346051,13.9117577 Z" id="Fill-4" fill="#FEFEFE"></path>
                <path d="M203.29767,28.1067839 C203.29767,24.7626191 199.371583,22.1511285 190.209997,22.1511285 L173.030279,22.1511285 C163.868693,22.1511285 159.942606,24.7626191 159.942606,28.1067839 L159.942606,45.8061135 C159.942606,49.0704768 163.868693,51.7617689 173.030279,51.7617689 L190.209997,51.7617689 C199.371583,51.7617689 203.29767,49.0704768 203.29767,45.8061135 L203.29767,28.1067839 Z M172.703731,13.9117577 L190.536545,13.9117577 C205.916494,13.9117577 213.686494,18.5616678 213.686494,28.1067839 L213.686494,45.8061135 C213.686494,55.2698213 205.916494,60.0011397 190.536545,60.0011397 L172.703731,60.0011397 C157.323783,60.0011397 149.553783,55.2698213 149.553783,45.8061135 L149.553783,28.1067839 C149.553783,18.5616678 157.323783,13.9117577 172.703731,13.9117577 L172.703731,13.9117577 Z" id="Fill-6" fill="#FEFEFE"></path>
                <g id="Group-10" transform="translate(216.982097, 0.181562)">
                    <mask id="mask-4" fill="white">
                        <use xlink:href="#path-3"></use>
                    </mask>
                    <g id="Clip-9"></g>
                    <path d="M38.3917059,57.217567 C38.3847238,58.8344846 37.0683299,60.1418367 35.446335,60.1423723 L22.4607084,60.1434434 C14.3969233,60.1445146 7.85953197,53.625964 7.85953197,45.5847581 L7.85953197,21.969406 L3.20623274,21.969406 C0.756590793,21.969406 0.266769821,20.5843948 0.266769821,17.8909603 C0.266769821,15.1996682 0.756590793,13.7300352 3.20623274,13.7300352 L7.85953197,13.7300352 L7.85953197,4.18706142 C7.85953197,1.08658577 9.57390537,0.35391161 13.0021151,0.35391161 C16.5124987,0.35391161 18.2268721,1.08658577 18.2268721,4.18706142 L18.2268721,13.7300352 L35.4538542,13.7300352 C37.9013478,13.7300352 38.3933171,15.1996682 38.3933171,17.8909603 C38.3933171,20.5843948 37.9013478,21.969406 35.4538542,21.969406 L18.2268721,21.969406 L18.2268721,45.6608105 C18.2268721,48.5245596 20.555133,50.8457655 23.4269233,50.84523 L35.4619105,50.8430876 C37.0930358,50.8425521 38.4137263,52.1649004 38.4067442,53.7914584 L38.3917059,57.217567 Z" id="Fill-8" fill="#FEFEFE" mask="url(#mask-4)"></path>
                </g>
                <path d="M291.925297,60.0013539 C276.016857,60.0013539 268.021818,54.9444026 268.021818,44.8283577 L268.021818,4.36899813 C268.021818,1.26798689 269.879593,0.535848315 273.352381,0.535848315 C276.90412,0.535848315 278.761895,1.26798689 278.761895,4.36899813 L278.761895,44.8283577 C278.761895,48.3358745 282.799696,51.1910543 292.249696,51.1910543 L316.477573,51.1910543 C325.924887,51.1910543 329.962688,48.3358745 329.962688,44.8283577 L329.962688,4.36899813 C329.962688,1.26798689 331.820463,0.535848315 335.37435,0.535848315 C338.847138,0.535848315 340.702765,1.26798689 340.702765,4.36899813 L340.702765,44.8283577 C340.702765,54.9444026 332.708263,60.0013539 316.799286,60.0013539 L291.925297,60.0013539 Z" id="Fill-11" fill="#D0D0D0"></path>
                <path d="M357.45534,9.67140599 L357.45534,30.3089303 L395.07112,30.3089303 C405.979304,30.3089303 409.025647,28.0246794 409.025647,25.0880914 L409.025647,14.8922449 C409.025647,11.9551213 405.979304,9.67140599 395.07112,9.67140599 L357.45534,9.67140599 Z M350.557565,0.861106367 L396.033038,0.861106367 C410.550967,0.861106367 419.613729,6.08194532 419.613729,14.0754846 L419.613729,25.9048517 C419.613729,33.898391 410.550967,39.1181588 396.033038,39.1181588 L357.45534,39.1181588 L357.45534,56.4934622 C357.45534,59.5939378 355.609918,60.326612 352.080737,60.326612 C348.631581,60.326612 346.786696,59.5939378 346.786696,56.4934622 L346.786696,4.61231236 C346.786696,2.08490787 347.989765,0.861106367 350.557565,0.861106367 L350.557565,0.861106367 Z" id="Fill-13" fill="#D0D0D0"></path>
                <path d="M43.1357724,128.846428 C26.9088414,128.846428 18.754289,123.753593 18.754289,113.568993 L18.754289,84.5731993 C18.754289,74.3061206 26.9088414,69.2952292 43.1357724,69.2952292 L83.4971279,69.2952292 C86.1331381,69.2952292 86.7099668,70.773967 86.7099668,73.7309071 C86.7099668,76.6878472 86.1331381,78.166585 83.4971279,78.166585 L43.4655422,78.166585 C33.8280997,78.166585 29.6270256,80.9591019 29.6270256,84.5731993 L29.6270256,113.568993 C29.6270256,117.100611 33.8280997,119.975607 43.4655422,119.975607 L83.5798389,119.975607 C86.215312,119.975607 86.7099668,121.45381 86.7099668,124.411285 C86.7099668,127.285746 86.215312,128.846428 83.5798389,128.846428 L43.1357724,128.846428 Z" id="Fill-15" fill="#FEFEFE"></path>
                <path d="M148.979156,114.55414 L148.979156,103.876271 L114.054169,103.876271 C104.828133,103.876271 100.874655,106.5049 100.874655,109.872095 L100.874655,114.55414 C100.874655,117.839927 104.828133,120.5505 114.054169,120.5505 L135.799642,120.5505 C145.025141,120.5505 148.979156,117.839927 148.979156,114.55414 L148.979156,114.55414 Z M113.724399,128.846642 C98.2386445,128.846642 90.4138619,124.082653 90.4138619,114.55414 L90.4138619,110.200942 C90.4138619,100.590485 98.2386445,95.9084397 113.724399,95.9084397 L148.979156,95.9084397 L148.979156,95.8259603 C148.979156,92.7051326 145.025141,90.7336607 135.799642,90.7336607 L128.057033,90.7336607 C125.585908,90.7336607 125.009079,89.3374022 125.009079,86.6262936 C125.009079,83.8343124 125.585908,82.4375184 128.057033,82.4375184 L136.129412,82.4375184 C151.615166,82.4375184 159.440486,87.1190277 159.440486,96.7300202 L159.440486,114.55414 C159.440486,124.082653 151.615166,128.846642 136.129412,128.846642 L113.724399,128.846642 Z" id="Fill-17" fill="#FEFEFE"></path>
                <g id="Group-21" transform="translate(165.959079, 82.125382)">
                    <mask id="mask-6" fill="white">
                        <use xlink:href="#path-5"></use>
                    </mask>
                    <g id="Clip-20"></g>
                    <path d="M42.8991867,38.4252783 C52.1246854,38.4252783 56.0787008,35.7966491 56.0787008,32.4289187 L56.0787008,14.6042633 C56.0787008,11.3190124 52.1246854,8.60843933 42.8991867,8.60843933 L23.7891867,8.60843933 C14.563688,8.60843933 10.6096726,11.3190124 10.6096726,14.6042633 L10.6096726,38.4252783 L42.8991867,38.4252783 Z M10.6096726,56.6601884 C10.6096726,59.7815517 8.88026087,60.5206528 5.33818926,60.5206528 C1.87882864,60.5206528 0.148879795,59.7815517 0.148879795,56.6601884 L0.148879795,14.6042633 C0.148879795,5.07575019 7.97419949,0.312297004 23.459954,0.312297004 L43.2284194,0.312297004 C58.7141739,0.312297004 66.5400307,5.07575019 66.5400307,14.6042633 L66.5400307,32.4289187 C66.5400307,42.0393757 58.7141739,46.720885 43.2284194,46.720885 L10.6096726,46.720885 L10.6096726,56.6601884 Z" id="Fill-19" fill="#FEFEFE" mask="url(#mask-6)"></path>
                </g>
                <path d="M249.95677,125.314381 C249.95677,128.435745 248.226821,129.174846 244.685286,129.174846 C241.225389,129.174846 239.49544,128.435745 239.49544,125.314381 L239.49544,86.5442427 C239.49544,83.4228794 241.225389,82.6837783 244.685286,82.6837783 C248.226821,82.6837783 249.95677,83.4228794 249.95677,86.5442427 L249.95677,125.314381 Z M244.685286,68.9670255 C249.297767,68.9670255 251.192601,70.5271715 251.192601,74.0593251 C251.192601,77.5914787 249.297767,79.1521603 244.685286,79.1521603 C240.072806,79.1521603 238.177972,77.5914787 238.177972,74.0593251 C238.177972,70.5271715 240.072806,68.9670255 244.685286,68.9670255 L244.685286,68.9670255 Z" id="Fill-22" fill="#FEFEFE"></path>
                <path d="M357.008647,114.55414 L357.008647,103.876271 L322.08366,103.876271 C312.857624,103.876271 308.904146,106.5049 308.904146,109.872095 L308.904146,114.55414 C308.904146,117.839927 312.857624,120.5505 322.08366,120.5505 L343.829133,120.5505 C353.054632,120.5505 357.008647,117.839927 357.008647,114.55414 L357.008647,114.55414 Z M321.75389,128.846642 C306.268136,128.846642 298.442816,124.082653 298.442816,114.55414 L298.442816,110.200942 C298.442816,100.590485 306.268136,95.9084397 321.75389,95.9084397 L357.008647,95.9084397 L357.008647,95.8259603 C357.008647,92.7051326 353.054632,90.7336607 343.829133,90.7336607 L336.086524,90.7336607 C333.614862,90.7336607 333.03857,89.3374022 333.03857,86.6262936 C333.03857,83.8343124 333.614862,82.4375184 336.086524,82.4375184 L344.158366,82.4375184 C359.64412,82.4375184 367.469977,87.1190277 367.469977,96.7300202 L367.469977,114.55414 C367.469977,124.082653 359.64412,128.846642 344.158366,128.846642 L321.75389,128.846642 Z" id="Fill-24" fill="#FEFEFE"></path>
                <path d="M384.927583,125.314381 C384.927583,128.435745 383.197634,129.174846 379.6561,129.174846 C376.196202,129.174846 374.466253,128.435745 374.466253,125.314381 L374.466253,72.8274899 C374.466253,69.7061266 376.196202,68.9670255 379.6561,68.9670255 C383.197634,68.9670255 384.927583,69.7061266 384.927583,72.8274899 L384.927583,125.314381 Z" id="Fill-26" fill="#FEFEFE"></path>
                <path d="M294.359471,126.039611 C294.352488,127.656528 293.036095,128.963881 291.4141,128.964416 L278.428473,128.965487 C270.364688,128.966558 263.827297,122.448008 263.827297,114.406802 L263.827297,90.7914498 L259.173997,90.7914498 C256.724355,90.7914498 256.234535,89.4064386 256.234535,86.7130041 C256.234535,84.021712 256.724355,82.552079 259.173997,82.552079 L263.827297,82.552079 L263.827297,73.0091052 C263.827297,69.9086296 265.54167,69.1759554 268.96988,69.1759554 C272.480263,69.1759554 274.194637,69.9086296 274.194637,73.0091052 L274.194637,82.552079 L291.421619,82.552079 C293.869113,82.552079 294.361082,84.021712 294.361082,86.7130041 C294.361082,89.4064386 293.869113,90.7914498 291.421619,90.7914498 L274.194637,90.7914498 L274.194637,114.482854 C274.194637,117.346603 276.522898,119.667809 279.394688,119.667274 L291.429675,119.665131 C293.060801,119.664596 294.381491,120.986944 294.374509,122.613502 L294.359471,126.039611 Z" id="Fill-28" fill="#FEFEFE"></path>
            </g>
        </g>
    </g>
</svg>