<?xml version="1.0" encoding="UTF-8" standalone="no"?>
<svg
   xmlns:dc="http://purl.org/dc/elements/1.1/"
   xmlns:cc="http://creativecommons.org/ns#"
   xmlns:rdf="http://www.w3.org/1999/02/22-rdf-syntax-ns#"
   xmlns:svg="http://www.w3.org/2000/svg"
   xmlns="http://www.w3.org/2000/svg"
   viewBox="0 0 318.52499 274.22751"
   height="274.22751"
   width="318.52499"
   xml:space="preserve"
   version="1.1"
   id="svg2"><metadata
     id="metadata8"><rdf:RDF><cc:Work
         rdf:about=""><dc:format>image/svg+xml</dc:format><dc:type
           rdf:resource="http://purl.org/dc/dcmitype/StillImage" /></cc:Work></rdf:RDF></metadata><defs
     id="defs6"><clipPath
       id="clipPath20"
       clipPathUnits="userSpaceOnUse"><path
         id="path22"
         d="m 157.499,210.282 12.568,-12.567 -3.412,-6.361 -20.563,20.561 -13.959,-15.745 -9.927,9.929 -21.806,-21.639 1.175,-17.48 -14.009,14.007 0,-2.103 -5.579,0 -14.668,14.668 -10.013,-1.519 6.357,-11.476 -4.763,0.43 -12.037,14.042 -4.638,-6.104 -0.991,-10.799 -0.667,-5.332 -18.167,-8 L 0,141.73 140.73,0 187.19,0 c 34.975,0 63.746,26.55 67.265,60.593 l 0,0 0,19.643 0.365,-0.365 0,90.93 -44.392,44.392 -6.695,-9.733 -27.5,3.75 -2.365,-4.409 -13.801,13.801 -2.568,-8.32 z" /></clipPath><linearGradient
       id="linearGradient28"
       spreadMethod="pad"
       gradientTransform="matrix(130,-138.66667,-138.66667,-130,83.196999,203.42601)"
       gradientUnits="userSpaceOnUse"
       y2="0"
       x2="1"
       y1="0"
       x1="0"><stop
         id="stop30"
         offset="0"
         style="stop-opacity:1;stop-color:#e34e40" /><stop
         id="stop32"
         offset="0.59234337"
         style="stop-opacity:1;stop-color:#fa5746" /><stop
         id="stop34"
         offset="1"
         style="stop-opacity:1;stop-color:#fa5746" /></linearGradient><clipPath
       id="clipPath42"
       clipPathUnits="userSpaceOnUse"><path
         id="path44"
         d="m 157.571,151.126 -8.752,-6.213 -6.063,-12.626 -2.094,-16.398 6.879,-6.879 -1.727,-1.727 -18.381,18.38 -1.21,-1.32 -20.569,20.57 L 88.233,128.46 81.932,108.825 85.002,93.568 176.359,0 187.19,0 c 37.351,0 67.63,30.279 67.63,67.63 l 0,0 0,12.163 -56.151,56.151 -5.372,-7.703 -0.98,-1.349 -27.842,27.841 -6.904,-3.607 z" /></clipPath><linearGradient
       id="linearGradient50"
       spreadMethod="pad"
       gradientTransform="matrix(127.03543,-127.03543,-127.03543,-127.03543,106.96314,148.52322)"
       gradientUnits="userSpaceOnUse"
       y2="0"
       x2="1"
       y1="0"
       x1="0"><stop
         id="stop52"
         offset="0"
         style="stop-opacity:1;stop-color:#e34e40" /><stop
         id="stop54"
         offset="0.59234337"
         style="stop-opacity:1;stop-color:#fa5746" /><stop
         id="stop56"
         offset="1"
         style="stop-opacity:1;stop-color:#fa5746" /></linearGradient><clipPath
       id="clipPath64"
       clipPathUnits="userSpaceOnUse"><path
         id="path66"
         d="m 0,219.382 254.82,0 L 254.82,0 0,0 0,219.382 Z" /></clipPath></defs><g
     transform="matrix(1.25,0,0,-1.25,0,274.2275)"
     id="g10"><g
       transform="translate(153.8913,215.6266)"
       id="g12"><path
         id="path14"
         style="fill:#dc4f44;fill-opacity:1;fill-rule:nonzero;stroke:none"
         d="M 0,0 3.915,-3.915 6.175,-0.434 3.088,2.333 0,0 Z" /></g><g
       id="g16"><g
         clip-path="url(#clipPath20)"
         id="g18"><g
           id="g24"><g
             id="g26"><path
               id="path36"
               style="fill:url(#linearGradient28);stroke:none"
               d="m 157.499,210.282 12.568,-12.567 -3.412,-6.361 -20.563,20.561 -13.959,-15.745 -9.927,9.929 -21.806,-21.639 1.175,-17.48 -14.009,14.007 0,-2.103 -5.579,0 -14.668,14.668 -10.013,-1.519 6.357,-11.476 -4.763,0.43 -12.037,14.042 -4.638,-6.104 -0.991,-10.799 -0.667,-5.332 -18.167,-8 L 0,141.73 140.73,0 187.19,0 c 34.975,0 63.746,26.55 67.265,60.593 l 0,0 0,19.643 0.365,-0.365 0,90.93 -44.392,44.392 -6.695,-9.733 -27.5,3.75 -2.365,-4.409 -13.801,13.801 -2.568,-8.32 z" /></g></g></g></g><g
       id="g38"><g
         clip-path="url(#clipPath42)"
         id="g40"><g
           id="g46"><g
             id="g48"><path
               id="path58"
               style="fill:url(#linearGradient50);stroke:none"
               d="m 157.571,151.126 -8.752,-6.213 -6.063,-12.626 -2.094,-16.398 6.879,-6.879 -1.727,-1.727 -18.381,18.38 -1.21,-1.32 -20.569,20.57 L 88.233,128.46 81.932,108.825 85.002,93.568 176.359,0 187.19,0 c 37.351,0 67.63,30.279 67.63,67.63 l 0,0 0,12.163 -56.151,56.151 -5.372,-7.703 -0.98,-1.349 -27.842,27.841 -6.904,-3.607 z" /></g></g></g></g><g
       id="g60"><g
         clip-path="url(#clipPath64)"
         id="g62"><g
           transform="translate(157.385,65.6364)"
           id="g68"><path
             id="path70"
             style="fill:#ffffff;fill-opacity:1;fill-rule:nonzero;stroke:none"
             d="M 0,0 C -11.33,8.357 30.647,29.945 30.647,29.945 28.473,12.079 25.385,-18.723 0,0 m 47.08,40.2 c -2.294,-0.411 -3.814,-1.262 -8.217,-3.327 0,0 1.889,18.652 2.42,33.435 0.083,2.297 -8.205,0.654 -8.894,-1.409 0,0 0.011,-1.432 0.076,-7.585 -15.801,-33.232 -16.07,-4.196 -14.609,5.283 0.249,1.621 -6.202,-1.551 -6.202,-1.551 -0.552,-3.291 -1.68,-16.073 0.895,-23.08 2.054,-5.587 6.723,-7.634 14.018,2.678 1.884,2.663 3.703,7.031 6.159,13.393 C 31.939,49.197 31.173,33.509 31.173,33.509 0.798,20.287 -37.301,-5.952 24.69,-15.514 c 11.303,-1.744 13.78,48.577 13.78,48.577 9.691,5.428 17.548,2.845 6.53,-12.175 0,0 13.408,0.746 13.541,10.567 0.065,4.807 -4.348,10.019 -11.461,8.745" /></g><g
           transform="translate(79.6876,168.1519)"
           id="g72"><path
             id="path74"
             style="fill:#ffffff;fill-opacity:1;fill-rule:nonzero;stroke:none"
             d="M 0,0 C -0.399,3.851 4.05,6.434 5.89,1.02 6.647,-1.208 5.815,-3.616 3.033,-7.055 3.033,-7.055 0.571,-5.509 0,0 m -71.122,-26.663 c -11.331,8.357 30.646,29.945 30.646,29.945 -2.173,-17.865 -5.261,-48.668 -30.646,-29.945 m 97.777,45.927 c 2.206,3.663 9.159,7.914 6.461,-1.897 C 30.262,6.99 23.262,0.956 23.262,0.956 c 0,0 -3.522,6.823 3.393,18.308 m 22.744,0.771 C 54.43,36.981 59.908,26.36 55.417,17.448 51.346,9.369 47.285,5.472 47.285,5.472 c 0,0 -1.272,3.157 2.114,14.563 M 18.89,-8.83 c 1.446,-2.073 8.149,-12.439 15.818,-4.036 2.836,3.107 5.362,6.331 7.997,10.017 1.659,-5.312 9.867,-14.152 20.221,-5.432 6.361,6.155 9.562,8.921 9.562,8.921 C 71.852,3.344 71.61,5.149 70.352,3.378 68.759,1.134 66.066,-1.428 64.027,-2.249 59.781,-3.957 52.414,-5.479 48.102,3.173 74.717,32.609 71.958,43.635 64.994,43.762 51.713,44.003 37.263,11.548 41.643,-0.679 30.638,-14.676 25.367,-4.446 24.443,-2.768 c 0,0 29.671,38.718 15.336,42.112 -12.838,3.04 -27.03,-29.466 -21.988,-45.117 0,0 -6.136,-9.23 -12.543,-2.963 5.416,7.991 7.877,15.811 5.133,19.89 -1.721,2.559 -7.378,3.295 -11.513,-3.113 -4.77,-7.393 -4.17,-15.102 -2.4,-20.574 -7.114,-4.051 -9.049,-0.7 -8.142,14.836 0.657,11.261 0.896,18.323 0.108,22.295 -0.431,2.175 -10.108,1.342 -10.816,-0.717 1.324,-2.121 2.113,-6.146 2.479,-10.334 -0.763,0.027 -1.591,-0.032 -2.49,-0.193 -2.207,-0.395 -5.237,-1.043 -9.386,-2.93 -0.054,7.861 -0.439,13.397 -1.045,16.453 -0.432,2.176 -9.027,1.225 -9.735,-0.834 3.353,-5.979 3.011,-16.597 2.879,-19.079 l -0.269,-0.118 c -30.376,-13.222 -68.474,-39.461 -6.483,-49.023 11.302,-1.744 14.654,48.492 14.654,48.492 4.054,2.271 8.781,3.419 12.108,2.894 0.027,-1.327 0.014,-2.609 -0.037,-3.785 l 0.423,-23.618 c 1.721,-8.518 7.72,-4.737 16.983,3.073 4.514,-6.336 10.358,-7.779 21.191,6.291" /></g><g
           transform="translate(158.4061,214.2825)"
           id="g76"><path
             id="path78"
             style="fill:#ffffff;fill-opacity:1;fill-rule:nonzero;stroke:none"
             d="m 0,0 c 0.502,-0.153 -1.372,-2.149 -0.832,-3.925 0,0 0.309,-0.917 2.316,-1.147 0.808,4.767 2.514,7.553 0.177,9.391 C -0.069,5.68 -3.945,5.194 -4.344,3.385 -4.956,0.603 -4.019,-0.156 0,0" /></g><g
           transform="translate(170.2999,196.7905)"
           id="g80"><path
             id="path82"
             style="fill:#ffffff;fill-opacity:1;fill-rule:nonzero;stroke:none"
             d="M 0,0 C 1.993,8.47 14.577,9.319 17.606,7.292 26.861,1.725 29.625,-14.966 20.643,-21.563 6.353,-32.06 -4.578,-19.452 0,0 m 4.344,-33.894 c 7.303,-1.242 16.217,3.465 22.14,12.327 2.349,3.514 3.735,8.252 5.113,12.664 1.606,5.142 2.199,10.113 1.912,14.53 3.901,2.689 6.371,9.072 7.411,12.297 0.155,0.48 -0.438,0.837 -0.792,0.478 -2.083,-2.108 -6.063,-5.657 -8.394,-4.657 -1.926,4.665 -5.294,7.856 -9.822,8.626 C 15.867,23.399 9.12,19.887 3.615,13.622 0.65,14.463 -1.345,17.295 -2.435,19.339 -2.679,19.798 -3.376,19.6 -3.346,19.081 -3.153,15.725 -2.593,9.342 -0.7,7.698 -2.584,4.588 -4.176,1.111 -5.341,-2.62 -10.192,-18.157 -5.856,-32.159 4.344,-33.894" /></g><g
           transform="translate(96.8154,123.7906)"
           id="g84"><path
             id="path86"
             style="fill:#ffffff;fill-opacity:1;fill-rule:nonzero;stroke:none"
             d="m 0,0 c -2.854,-10.377 -9.854,-16.411 -9.854,-16.411 0,0 -3.906,7.029 3.394,18.308 C -3.818,5.979 2.5,9.091 0,0 m 6.714,22.109 c -12.838,3.04 -25.955,-29.117 -22.039,-45.249 0.766,-3.153 6.163,-17.068 17.511,-6.976 4.921,4.376 8.873,16.41 6.335,20.184 -1.722,2.559 -7.378,3.294 -11.513,-3.113 0,0 0.067,-1.843 0.554,-1.998 0.482,-0.154 0.66,0.301 1.545,1.09 1.368,1.214 3.882,0.836 5.03,-2.543 0.522,-1.535 1.025,-3.945 -0.738,-6.108 -0.709,-0.87 -1.417,-1.546 -2.338,-2.01 -0.068,-0.03 -0.14,-0.072 -0.208,-0.1 -0.16,-0.072 -0.342,-0.125 -0.517,-0.185 -5.51,-1.879 -8.354,3.575 -9.009,4.764 0,0 29.722,38.85 15.387,42.244" /></g><g
           transform="translate(146.289,115.5479)"
           id="g88"><path
             id="path90"
             style="fill:#ffffff;fill-opacity:1;fill-rule:nonzero;stroke:none"
             d="M 0,0 C -1.626,2.44 -5.146,9.682 0.227,21.28 4.246,29.955 13.586,32.998 8.557,18.017 3.687,3.508 0.7,-0.933 0.7,-0.933 0.7,-0.933 0.158,-0.226 0,0 m -31.508,2.718 c 1.272,2.057 5.146,3.877 6.541,3.019 0,0 0.146,-3.07 2.794,-10.989 -9.335,-17.779 -15.183,-1.492 -9.335,7.97 M 19.337,-1.77 19.323,-1.782 c 1.222,4.545 1.229,6.674 -0.508,9.258 -1.722,2.559 -6.375,4.114 -10.51,-2.294 0,0 0.067,-1.842 0.554,-1.997 0.482,-0.154 0.66,0.3 1.545,1.089 1.368,1.215 3.882,0.836 5.03,-2.542 0.522,-1.535 1.074,-3.984 -0.738,-6.108 -1.301,-1.525 -2.888,-2.235 -3.063,-2.295 0,0 -5.184,-2.951 -8.894,3.177 0,0 24.09,45.325 13.175,43.434 -17.098,-2.963 -26.312,-29.753 -22.543,-42.586 0.645,-2.197 2.496,-5.705 2.496,-5.705 -10.519,-8.686 -14.814,19.341 -14.723,18.466 -7.85,4.312 -14.047,-1.323 -16.691,-6.409 -1.926,-3.705 -4.512,-8.822 -2.68,-18.302 1.009,-5.22 9.082,-14.482 15.625,2.932 0.471,1.256 1.554,3.811 1.554,3.811 0.551,-0.564 1.647,-4.616 3.342,-7.273 4.113,-6.442 8.974,-3.81 15.475,4.011 4.241,-5.312 14.168,-9.921 21.568,9.345" /></g></g></g></g></svg>