<?xml version="1.0" encoding="utf-8"?>
<!DOCTYPE svg PUBLIC "-//W3C//DTD SVG 1.1//EN" "http://www.w3.org/Graphics/SVG/1.1/DTD/svg11.dtd">
<svg version="1.1" id="Layer_1" xmlns="http://www.w3.org/2000/svg" xmlns:xlink="http://www.w3.org/1999/xlink" x="0px" y="0px"
	 viewBox="0 0 333.8 102.8" enable-background="new 0 0 333.8 102.8" xml:space="preserve">
<path fill-rule="evenodd" clip-rule="evenodd" fill="#FFFFFF" d="M54.2,63.4c0,7,0.9,21-16.7,21.6c-17.7,0.7-17.8-18.9-17.8-18.9V0
	H0c0,0,0,48.5,0,67c0,18.5,17.5,40.8,44.9,34.8c27.4-6,27.8-32.2,27.8-32.2V0H54.2C54.2,0,54.2,56.3,54.2,63.4L54.2,63.4z"/>
<path fill-rule="evenodd" clip-rule="evenodd" fill="#FFFFFF" d="M130.7,23.3c-17.5-2.3-27,8.3-27,8.3v-6H87.4v74.7h17.3
	c0,0,0-27.4,0-44.5c0-17.1,16-17.3,16-17.3c15.6,0.6,15.6,20.6,15.6,20.6v41.2H154c0,0,0-27.6,0-42.9
	C154,42.1,148.1,25.6,130.7,23.3L130.7,23.3z"/>
<path fill-rule="evenodd" clip-rule="evenodd" fill="#FFFFFF" d="M205.8,86.2c-12.4,0-22.5-10.6-22.5-23.7
	c0-13.1,10.1-23.7,22.5-23.7c12.4,0,22.5,10.6,22.5,23.7C228.3,75.6,218.2,86.2,205.8,86.2L205.8,86.2z M227.1,0.2v31.6
	c-31.1-25-67,7.4-60.8,37.1c5.9,28.1,29.9,33.4,29.9,33.4c25.4,3.6,31.8-11.5,31.8-11.5v9.5H245V0.2H227.1L227.1,0.2z"/>
<polygon fill-rule="evenodd" clip-rule="evenodd" fill="#FFFFFF" points="323.2,25.4 323.2,19.3 320.9,19.3 320.9,18.5 326.3,18.5
	326.3,19.3 324.1,19.3 324.1,25.4 323.2,25.4 "/>
<path fill-rule="evenodd" clip-rule="evenodd" fill="#FFFFFF" d="M327.2,25.4v-6.8h1.4l1.6,4.8c0.1,0.5,0.3,0.8,0.3,1
	c0.1-0.2,0.2-0.6,0.4-1.1l1.6-4.8h1.2v6.8h-0.9v-5.7l-2,5.7h-0.8l-2-5.8v5.8H327.2L327.2,25.4z"/>
<path fill-rule="evenodd" clip-rule="evenodd" fill="#FFFFFF" d="M309.7,26l2.9-6.4l-18.9,7.2l4.6,12.2l-0.1,0.2c0.1,0,0.1,0,0.2,0
	l2.4,6.4l2.2-5c8.2,3.5,14,11.8,14,21.6c0,12.9-10.1,23.4-22.5,23.4c-12.4,0-22.5-10.5-22.5-23.4c0-11.4,7.9-20.9,18.4-22.9V22.7
	C270,24.3,254,41.4,254,62.2c0,21.9,17.8,39.7,39.7,39.7c21.9,0,39.7-17.8,39.7-39.7C333.3,46,323.6,32.1,309.7,26L309.7,26z"/>
</svg>
