<?xml version="1.0" encoding="UTF-8" standalone="no"?>
<svg width="80px" height="80px" viewBox="0 0 80 80" version="1.1" xmlns="http://www.w3.org/2000/svg" xmlns:xlink="http://www.w3.org/1999/xlink">
    <!-- Generator: sketchtool 39.1 (31720) - http://www.bohemiancoding.com/sketch -->
    <title>8104DA08-959F-4503-852D-29341DD66EEE</title>
    <desc>Created with sketchtool.</desc>
    <defs></defs>
    <g id="Finals" stroke="none" stroke-width="1" fill="none" fill-rule="evenodd">
        <g id="Splash" transform="translate(-266.000000, -160.000000)" fill="#FFFFFF">
            <path d="M288.857143,220.917249 C288.857143,218.83271 287.157816,217.142857 285.082751,217.142857 L269.774392,217.142857 C267.689853,217.142857 266,218.842184 266,220.917249 L266,236.225608 C266,238.310147 267.699327,240 269.774392,240 L285.082751,240 C287.16729,240 288.857143,238.300673 288.857143,236.225608 L288.857143,220.917249 Z M288.857143,163.774392 C288.857143,161.689853 287.157816,160 285.082751,160 L269.774392,160 C267.689853,160 266,161.699327 266,163.774392 L266,179.082751 C266,181.16729 267.699327,182.857143 269.774392,182.857143 L285.082751,182.857143 C287.16729,182.857143 288.857143,181.157816 288.857143,179.082751 L288.857143,163.774392 Z M288.857143,192.345821 C288.857143,190.261282 287.157816,188.571429 285.082751,188.571429 L269.774392,188.571429 C267.689853,188.571429 266,190.270756 266,192.345821 L266,207.654179 C266,209.738718 267.699327,211.428571 269.774392,211.428571 L285.082751,211.428571 C287.16729,211.428571 288.857143,209.729244 288.857143,207.654179 L288.857143,192.345821 Z M317.428571,163.774392 C317.428571,161.689853 315.729244,160 313.654179,160 L298.345821,160 C296.261282,160 294.571429,161.699327 294.571429,163.774392 L294.571429,179.082751 C294.571429,181.16729 296.270756,182.857143 298.345821,182.857143 L313.654179,182.857143 C315.738718,182.857143 317.428571,181.157816 317.428571,179.082751 L317.428571,163.774392 Z M317.428571,220.917249 C317.428571,218.83271 315.729244,217.142857 313.654179,217.142857 L298.345821,217.142857 C296.261282,217.142857 294.571429,218.842184 294.571429,220.917249 L294.571429,236.225608 C294.571429,238.310147 296.270756,240 298.345821,240 L313.654179,240 C315.738718,240 317.428571,238.300673 317.428571,236.225608 L317.428571,220.917249 Z M346,163.774392 C346,161.689853 344.300673,160 342.225608,160 L326.917249,160 C324.83271,160 323.142857,161.699327 323.142857,163.774392 L323.142857,179.082751 C323.142857,181.16729 324.842184,182.857143 326.917249,182.857143 L342.225608,182.857143 C344.310147,182.857143 346,181.157816 346,179.082751 L346,163.774392 Z M346,217.142857 L323.142857,240 L342.225608,240 C344.310147,240 346,238.300673 346,236.225608 L346,217.142857 Z" id="Logomark"></path>
        </g>
    </g>
</svg>