<?xml version="1.0" encoding="utf-8"?>
<!-- Generator: Adobe Illustrator 16.0.5, SVG Export Plug-In . SVG Version: 6.00 Build 0)  -->
<!DOCTYPE svg PUBLIC "-//W3C//DTD SVG 1.1//EN" "http://www.w3.org/Graphics/SVG/1.1/DTD/svg11.dtd">
<svg version="1.1" id="Layer_1" xmlns="http://www.w3.org/2000/svg" xmlns:xlink="http://www.w3.org/1999/xlink" x="0px" y="0px"
	 width="2817.73px" height="942.094px" viewBox="0 0 2817.73 942.094" enable-background="new 0 0 2817.73 942.094"
	 xml:space="preserve">
<g>
	<g>
		<path fill="#FFFFFF" d="M706.044,223.441c2.245-3.707,2.957-5.911,3.718-7.399c1.479-8.121,1.479-20.678,1.479-38.429
			c0-17.752-6.684-33.238-21.451-47.298c-12.57-11.83-28.09-19.937-47.275-24.359c-17.008-3.7-36.224-5.203-56.93-5.203h-64.296
			H351.33c-13.305,0-19.954,6.646-19.954,19.237v267.476c0,13.314,6.651,19.995,19.954,19.995h169.961h67.275
			c32.511,0,59.855-5.176,81.274-16.262c28.123-14.026,41.401-36.246,41.401-65.024v-22.927c-0.753-5.918-0.753-9.629-1.479-12.554
			c-0.76-2.204-1.473-4.451-3.718-8.141c-1.484-2.947-4.4-7.408-7.398-11.858c-5.866-10.309-8.854-15.501-8.854-16.219
			c0-1.453,2.987-7.361,8.854-17.751C701.644,231.565,704.559,227.113,706.044,223.441z M655.081,325.407v6.618
			c-3.704,19.981-27.377,29.607-73.177,29.607h-60.615H387.565v-83.514h133.724h65.035c45.841,0,68.755,11.071,68.755,31.787v15.502
			H655.081z M584.859,232.29h-63.57H388.294v-86.445h132.995h61.367c46.549,0,70.927,11.054,72.423,32.527
			c1.474,11.07,2.208,19.936,2.208,25.858C657.289,222.663,632.92,232.29,584.859,232.29z"/>
		<path fill="#FFFFFF" d="M588.566,407.961H351.33c-13.572,0-20.454-6.896-20.454-20.495V119.99
			c0-12.912,7.073-19.737,20.454-19.737h234.255c22.251,0,40.908,1.706,57.036,5.214c19.158,4.416,34.697,12.424,47.512,24.483
			c14.541,13.844,21.608,29.433,21.608,47.662c0,17.622,0,30.353-1.488,38.519l-0.046,0.138c-0.22,0.43-0.436,0.92-0.686,1.491
			c-0.611,1.39-1.447,3.294-3.05,5.939c-1.075,2.676-2.933,5.781-5.083,9.376c-0.748,1.251-1.525,2.551-2.31,3.9
			c-5.829,10.324-8.787,16.213-8.787,17.5c0.089,0.688,3.051,5.892,7.535,13.768l1.254,2.204c2.782,4.127,5.856,8.795,7.411,11.88
			c2.128,3.494,2.885,5.699,3.616,7.831l0.128,0.372c0.448,1.8,0.628,3.822,0.854,6.382c0.159,1.801,0.34,3.843,0.649,6.272
			l0.004,22.99c0,29.65-14.022,51.679-41.678,65.472C649.152,402.471,621.729,407.961,588.566,407.961z M351.33,101.253
			c-12.909,0-19.454,6.304-19.454,18.737v267.476c0,13.118,6.363,19.495,19.454,19.495h237.236c33.001,0,60.269-5.453,81.045-16.206
			c27.295-13.614,41.131-35.34,41.131-64.581v-22.927c-0.309-2.385-0.489-4.437-0.649-6.247c-0.222-2.517-0.397-4.504-0.815-6.187
			l-0.116-0.331c-0.714-2.082-1.453-4.234-3.544-7.671c-1.549-3.07-4.603-7.705-7.388-11.839l-1.273-2.235
			c-5.95-10.452-7.666-13.5-7.666-14.263c0-1.025,1.014-3.997,8.919-17.997c0.789-1.358,1.569-2.662,2.319-3.917
			c2.129-3.56,3.968-6.634,5.05-9.309c1.604-2.661,2.425-4.53,3.024-5.895c0.247-0.562,0.461-1.048,0.678-1.478
			c1.458-8.08,1.458-20.75,1.458-38.268c0-17.94-6.967-33.293-21.297-46.936c-12.68-11.933-28.067-19.861-47.043-24.234
			c-16.052-3.492-34.639-5.19-56.816-5.19H351.33V101.253z M581.904,362.132H387.065v-84.514h199.259
			c45.954,0,69.255,10.863,69.255,32.287l0.002,22.12C651.829,352.313,627.731,362.132,581.904,362.132z M388.065,361.132h193.839
			c45.268,0,69.043-9.551,72.685-29.198l-0.01-22.029c0-20.76-22.964-31.287-68.255-31.287H388.065V361.132z M584.859,232.79
			H387.794v-87.445h194.862c46.861,0,71.396,11.1,72.922,32.993c1.443,10.841,2.209,19.806,2.209,25.893
			c0.001,9.423-6.228,16.626-18.509,21.408C627.089,230.384,608.78,232.79,584.859,232.79z M388.794,231.79h196.065
			c23.796,0,41.982-2.383,54.056-7.083c11.86-4.618,17.873-11.507,17.872-20.477c0-6.043-0.762-14.962-2.204-25.792
			c-1.485-21.306-25.684-32.093-71.927-32.093H388.794V231.79z"/>
	</g>
	<g>
		<path fill="#FFFFFF" d="M961.004,165.782h-47.301h-41.399c-31.749,0-58.354,5.194-79.042,16.246
			c-29.581,14.06-43.602,34.713-43.602,61.367v88.63c0,27.362,14.021,47.34,43.602,60.634c23.639,9.626,50.262,14.804,79.042,14.804
			h41.399h47.301c32.511,0,57.654-5.178,76.839-14.804c27.359-12.575,41.425-32.495,41.425-60.634v-89.39
			C1079.268,191.63,1040.047,165.782,961.004,165.782z M1025.304,332.025c0,11.134-8.875,19.258-25.867,25.157
			c-12.588,3.726-25.855,5.938-39.903,5.938h-45.829h-40.657c-16.256,0-30.284-2.212-42.85-5.938
			c-18.495-5.176-27.352-13.282-27.352-25.157v-88.63c0-11.833,8.854-20.735,26.627-26.653c13.288-4.389,27.317-5.856,43.571-5.856
			H913.7h45.829c43.604,0,65.771,9.59,65.771,28.785L1025.304,332.025L1025.304,332.025z"/>
		<path fill="#FFFFFF" d="M961.004,407.963h-88.7c-28.392,0-55.049-4.993-79.229-14.841c-29.555-13.281-43.913-33.264-43.913-61.097
			v-88.63c0-27.178,14.766-47.977,43.887-61.819c20.232-10.808,46.905-16.294,79.257-16.294h88.7
			c39.367,0,69.326,6.521,89.046,19.381c19.719,12.859,29.719,32.364,29.719,57.972v89.39c0,27.812-14.035,48.366-41.717,61.088
			C1018.143,403.103,992.935,407.963,961.004,407.963z M872.304,166.282c-32.186,0-58.7,5.446-78.807,16.187
			c-28.763,13.672-43.337,34.167-43.337,60.926v88.63c0,27.397,14.166,47.082,43.307,60.178c24.045,9.792,50.575,14.76,78.837,14.76
			h88.7c31.772,0,56.833-4.825,76.615-14.75c27.693-12.729,41.148-32.415,41.148-60.188v-89.39c0-25.249-9.846-44.471-29.264-57.134
			c-19.555-12.752-49.331-19.218-88.5-19.218L872.304,166.282L872.304,166.282z M959.532,363.62h-86.486
			c-15.408,0-29.47-1.949-42.992-5.958c-18.643-5.218-27.708-13.604-27.708-25.637v-88.63c0-12.042,9.074-21.168,26.969-27.127
			c12.316-4.068,25.803-5.882,43.729-5.882h86.485c43.975,0,66.271,9.854,66.271,29.285l0.002,92.354
			c0,11.125-8.571,19.508-26.203,25.629C986.033,361.671,972.934,363.62,959.532,363.62z M873.044,211.386
			c-17.815,0-31.205,1.798-43.415,5.831c-17.439,5.808-26.284,14.615-26.284,26.178v88.63c0,11.682,8.575,19.523,26.985,24.676
			c13.435,3.984,27.405,5.919,42.715,5.919h86.486c13.304,0,26.311-1.936,39.762-5.917c17.158-5.957,25.509-14.031,25.509-24.678
			l-0.002-92.354c0-18.769-21.961-28.285-65.271-28.285H873.044z"/>
	</g>
	<g>
		<path fill="#FFFFFF" d="M1325.312,165.782h-47.289h-41.396c-31.784,0-57.649,5.194-79.04,16.246
			c-29.553,14.06-43.633,34.713-43.633,61.367v88.63c0,27.362,14.779,47.34,43.633,60.634c23.636,9.626,50.247,14.804,79.764,14.804
			h40.669h47.289c32.563,0,58.388-5.178,77.623-14.804c26.564-12.575,40.615-32.495,40.615-60.634v-89.39
			C1443.551,191.63,1404.351,165.782,1325.312,165.782z M1389.608,332.025c0,11.134-8.869,19.258-25.866,25.157
			c-12.555,3.726-25.826,5.938-39.155,5.938h-46.564h-39.891c-16.989,0-31.058-2.212-43.6-5.938
			c-18.486-5.176-27.351-13.282-27.351-25.157v-88.63c0-11.833,8.865-20.735,26.614-26.653c13.277-4.389,27.345-5.856,43.556-5.856
			h40.668h45.848c43.545,0,65.74,9.59,65.74,28.785L1389.608,332.025L1389.608,332.025z"/>
		<path fill="#FFFFFF" d="M1325.311,407.963h-87.957c-28.873,0-55.772-4.993-79.952-14.841
			c-29.167-13.438-43.944-33.991-43.944-61.097v-88.63c0-27.155,14.776-47.954,43.918-61.819
			c21.216-10.962,47.146-16.294,79.255-16.294h88.685c39.362,0,69.316,6.521,89.03,19.381
			c19.712,12.858,29.706,32.363,29.705,57.972v89.39c0,27.686-13.761,48.238-40.901,61.086
			C1383.457,402.964,1357.266,407.963,1325.311,407.963z M1236.629,166.282c-31.946,0-57.725,5.296-78.811,16.19
			c-28.778,13.692-43.362,34.187-43.362,60.923v88.63c0,27.057,14.177,46.742,43.342,60.18c24.039,9.79,50.812,14.758,79.554,14.758
			h87.959c31.798,0,57.839-4.963,77.398-14.751c26.771-12.673,40.339-32.921,40.339-60.187v-89.39
			c0.001-25.25-9.841-44.472-29.251-57.134c-19.549-12.752-49.319-19.218-88.484-19.218L1236.629,166.282L1236.629,166.282z
			 M1324.587,363.62h-86.455c-15.938,0-30.246-1.949-43.741-5.958c-18.643-5.22-27.707-13.606-27.707-25.637v-88.63
			c0-12.037,9.068-21.163,26.955-27.127c12.307-4.068,25.788-5.882,43.714-5.882h86.516c43.954,0,66.24,9.854,66.24,29.285v92.354
			c0.001,11.127-8.569,19.51-26.201,25.629C1350.562,361.615,1337.341,363.62,1324.587,363.62z M1237.352,211.386
			c-17.813,0-31.197,1.798-43.397,5.831c-17.432,5.812-26.271,14.62-26.271,26.178v88.63c0,11.68,8.574,19.521,26.983,24.676
			c13.41,3.984,27.625,5.919,43.465,5.919h86.455c12.657,0,25.783-1.991,39.013-5.917c17.157-5.955,25.509-14.029,25.509-24.678
			l-0.001-92.354c0-18.769-21.95-28.285-65.24-28.285H1237.352z"/>
	</g>
	<g>
		<path fill="#FFFFFF" d="M1643.094,363.12h-35.465c-11.849,0-28.104-1.486-38.415-8.882c-5.938-4.433-9.651-14.059-9.651-21.466
			v-72.385h-0.743v-48.033h84.274c13.288,0,19.954-6.678,19.954-19.961c0-16.3-6.664-24.36-19.954-24.36h-84.274V119.99
			c0-8.884-3.673-14.805-10.354-17.733c-2.175-0.762-9.563-1.504-22.9-1.504c-13.288,0-19.916,6.646-19.916,19.237v48.042h-17.011
			c-4.468,0.697-7.388,0.697-9.601,1.458c-8.158,2.246-12.565,9.611-12.565,20.697c0,11.069,4.407,17.735,12.565,20.7
			c2.213,0.724,5.133,0.724,9.601,0.724c4.398,0.74,10.319,0.74,17.011,0.74v48.033v50.987c0,25.872,1.479,49.534,18.45,69.454
			c19.202,22.928,43.615,26.634,71.688,26.634h47.314c13.288,0,19.952-6.68,19.952-19.995
			C1663.048,371.245,1656.384,363.12,1643.094,363.12z"/>
		<path fill="#FFFFFF" d="M1643.1,407.959h-47.314c-29.78,0-53.434-4.56-72.07-26.813c-17.146-20.125-18.566-44.489-18.566-69.775
			v-98.52c-6.577,0-12.264-0.019-16.594-0.747c-4.397,0.007-7.384,0.007-9.673-0.742c-8.571-3.115-12.91-10.237-12.91-21.175
			c0-11.362,4.594-18.883,12.934-21.179c1.384-0.477,3.05-0.662,5.159-0.895c1.307-0.146,2.787-0.309,4.496-0.575l16.588-0.006
			V119.99c0-12.912,7.06-19.737,20.416-19.737c13.781,0,20.951,0.792,23.065,1.532c7.006,3.068,10.689,9.358,10.689,18.205v47.543
			h83.774c13.572,0,20.454,8.364,20.454,24.86c0,13.577-6.882,20.461-20.454,20.461h-83.774v47.033h0.744v72.885
			c0,6.792,3.312,16.482,9.449,21.065c10.12,7.258,26.314,8.783,38.116,8.783h35.465c13.571,0,20.454,8.358,20.458,24.844
			C1663.552,401.062,1656.671,407.959,1643.1,407.959z M1488.637,168.532c-1.654,0.264-3.146,0.429-4.465,0.575
			c-2.047,0.227-3.665,0.405-4.973,0.855c-7.896,2.175-12.229,9.354-12.229,20.224c0,10.62,4.003,17.237,12.236,20.23
			c2.122,0.694,5.029,0.694,9.43,0.694c4.44,0.74,10.266,0.74,17.011,0.74h0.5v99.52c0,25.092,1.401,49.26,18.332,69.13
			c18.391,21.959,41.806,26.458,71.306,26.458h47.314c13.089,0,19.452-6.377,19.452-19.495
			c-0.004-16.044-6.369-23.844-19.458-23.844h-35.465c-11.948,0-28.363-1.557-38.706-8.976c-6.407-4.783-9.859-14.837-9.859-21.872
			v-71.885h-0.744v-49.033h84.774c13.091,0,19.454-6.366,19.454-19.461c0-16.055-6.363-23.86-19.454-23.86h-84.774V119.99
			c0-8.54-3.384-14.352-10.057-17.275c-2.001-0.7-9.044-1.462-22.699-1.462c-12.885,0-19.416,6.304-19.416,18.737v48.542H1488.637z"
			/>
	</g>
</g>
<g>
	<g>
		<path fill="#FFFFFF" d="M2072.245,101.39c-12.447,0-20.553,0-24.233,1.48c-7.265,2.176-11.67,8.036-11.67,17.61v195.505
			c0,19.749-11.717,32.961-35.173,38.795c-10.265,3.698-29.272,5.199-58.594,5.199h-76.149c-13.223,0-24.925-0.724-34.448-1.499
			c-9.52-0.73-17.568-2.162-24.9-3.7c-23.454-6.539-35.188-19.77-35.188-38.793V120.478c0-9.574-3.623-15.433-11.65-17.611
			c-3.684-1.479-11.752-1.479-24.205-1.479c-13.221,0-19.759,6.583-19.759,19.09v199.204c0,17.554,2.89,31.44,8.773,41.719
			c15.337,29.337,62.227,43.992,140.61,43.992h12.476c4.405,0,10.239,0.725,17.568,0.725h17.604c4.388,0,8.76,0.709,12.44,0.709
			c110.599,0,166.25-29.318,166.25-87.143V120.478C2091.994,107.97,2085.412,101.39,2072.245,101.39z"/>
		<path fill="#FFFFFF" d="M1925.747,407.325c-1.781,0-3.695-0.162-5.722-0.333c-2.188-0.186-4.451-0.376-6.721-0.376h-17.604
			c-4.146,0-7.789-0.229-11.005-0.432c-2.498-0.156-4.655-0.292-6.563-0.292h-12.476c-78.242,0-125.7-14.891-141.054-44.26
			c-5.856-10.229-8.832-24.349-8.832-41.95V120.478c0-12.999,6.816-19.59,20.26-19.59c12.416,0,20.618,0,24.392,1.515
			c8.033,2.176,11.965,8.094,11.965,18.075v195.509c0,18.979,11.716,31.87,34.823,38.312c6.219,1.303,14.689,2.907,24.804,3.683
			c12.56,1.022,23.492,1.498,34.411,1.498h76.149c30.481,0,48.501-1.594,58.425-5.169c23.136-5.758,34.842-18.647,34.842-38.325
			V120.48c0-9.342,4.271-15.766,12.026-18.089c3.728-1.501,11.942-1.501,24.377-1.501c13.246,0,20.249,6.773,20.252,19.588v199.204
			C2092.497,377.838,2036.395,407.325,1925.747,407.325z M1736.031,101.888c-12.779,0-19.26,6.254-19.26,18.59v199.204
			c0,17.425,2.931,31.377,8.709,41.47c15.177,29.03,62.336,43.74,140.177,43.74h12.476c1.939,0,4.111,0.137,6.626,0.294
			c3.201,0.201,6.83,0.43,10.942,0.43h17.604c2.312,0,4.596,0.192,6.805,0.379c2.005,0.169,3.897,0.33,5.638,0.33
			c109.982,0,165.75-29.151,165.75-86.643V120.478c-0.003-12.334-6.48-18.588-19.252-18.588c-12.318,0-20.456,0-24.048,1.444
			c-7.443,2.232-11.355,8.156-11.355,17.146v195.505c0,20.197-11.962,33.413-35.552,39.281c-9.989,3.601-28.112,5.213-58.715,5.213
			h-76.149c-10.946,0-21.906-0.477-34.49-1.5c-10.169-0.78-18.682-2.392-24.962-3.709c-23.624-6.585-35.586-19.799-35.586-39.283
			V120.478c0-9.598-3.585-15.04-11.282-17.128C1756.456,101.888,1748.331,101.888,1736.031,101.888z"/>
	</g>
	<g>
		<path fill="#FFFFFF" d="M2453.123,113.829c-21.973-8.078-49.143-12.441-79.862-12.441h-61.552h-169.88
			c-13.212,0-19.065,6.583-19.065,19.09v265.104c0,13.163,5.852,19.812,19.065,19.812c13.889,0,21.94-0.772,24.152-1.544
			c8.06-2.886,11.7-8.734,11.7-18.268v-88.64h134.025h58.627c33.645,0,61.502-5.156,84.939-14.618
			c30.769-13.94,45.414-35.914,45.414-65.969V168.74C2500.689,144.606,2484.584,126.29,2453.123,113.829z M2445.763,214.162
			c0,24.938-24.176,37.357-71.741,37.357h-62.312h-134.027V146.085h134.027h61.552c48.324,0,72.502,9.464,72.502,27.009
			L2445.763,214.162L2445.763,214.162z"/>
		<path fill="#FFFFFF" d="M2141.829,405.894c-13.166,0-19.565-6.644-19.565-20.312V120.478c0-13.182,6.399-19.59,19.565-19.59
			h231.433c30.166,0,57.842,4.312,80.034,12.472c31.783,12.589,47.895,31.22,47.895,55.38v47.615
			c0,30.762-14.951,52.489-45.708,66.425c-24.445,9.869-52.291,14.662-85.146,14.662h-192.152v88.14
			c0,9.845-3.823,15.799-12.031,18.738C2164.064,405.047,2156.447,405.894,2141.829,405.894z M2141.829,101.888
			c-12.492,0-18.565,6.081-18.565,18.59v265.104c0,13.175,5.899,19.312,18.565,19.312c13.563,0,21.821-0.761,23.988-1.516
			c7.752-2.776,11.364-8.431,11.364-17.795v-89.14h193.152c32.727,0,60.448-4.77,84.753-14.582
			c30.343-13.748,45.103-35.178,45.103-65.505V168.74c0-23.709-15.897-42.028-47.251-54.446
			c-22.071-8.114-49.628-12.406-79.679-12.406H2141.829z M2374.021,252.019h-196.841V145.585h196.079
			c48.44,0,73.002,9.255,73.002,27.509v41.068C2446.263,239.282,2421.957,252.019,2374.021,252.019z M2178.182,251.019h195.84
			c47.272,0,71.241-12.4,71.241-36.857v-41.068c0-17.342-24.896-26.509-72.002-26.509h-195.079V251.019z"/>
	</g>
</g>
<text transform="matrix(1 0 0 1 478.3086 695.3027)" fill="#FFFFFF" font-family="'Gidole-Regular'" font-size="228.986">CO-WORKING SPACE</text>
</svg>
