<?xml version="1.0" encoding="utf-8"?>
<!-- Generator: Adobe Illustrator 16.0.5, SVG Export Plug-In . SVG Version: 6.00 Build 0)  -->
<!DOCTYPE svg PUBLIC "-//W3C//DTD SVG 1.1//EN" "http://www.w3.org/Graphics/SVG/1.1/DTD/svg11.dtd">
<svg version="1.1" id="Layer_1" xmlns="http://www.w3.org/2000/svg" xmlns:xlink="http://www.w3.org/1999/xlink" x="0px" y="0px"
	 width="612px" height="792px" viewBox="0 0 612 792" enable-background="new 0 0 612 792" xml:space="preserve">
<g>
	<circle fill="none" stroke="#01426A" stroke-width="24" cx="306.298" cy="111.163" r="81.33"/>
	<polyline fill="none" stroke="#01426A" stroke-width="24" stroke-linecap="round" stroke-linejoin="round" points="
		399.483,427.589 378.408,434.556 378.408,516.307 378.408,526.514 378.408,651.767 234.333,651.767 234.333,527.255 
		234.333,516.307 234.333,433.822 197.028,422.845 197.028,247.327 229.945,217.346 382.084,217.346 414.972,248.061 
		414.972,386.667 346.123,411.49 	"/>
</g>
<rect x="283.995" y="295.806" fill="none" stroke="#01426A" stroke-width="16" width="8.754" height="8.761"/>
<rect x="283.995" y="330.807" fill="none" stroke="#01426A" stroke-width="16" width="8.754" height="8.761"/>
<rect x="283.995" y="365.809" fill="none" stroke="#01426A" stroke-width="16" width="8.754" height="8.754"/>
<rect x="319.956" y="295.806" fill="none" stroke="#01426A" stroke-width="16" width="8.761" height="8.761"/>
<rect x="283.995" y="260.796" fill="none" stroke="#01426A" stroke-width="16" width="8.754" height="8.761"/>
<rect x="319.956" y="260.796" fill="none" stroke="#01426A" stroke-width="16" width="8.761" height="8.761"/>
<rect x="319.956" y="330.807" fill="none" stroke="#01426A" stroke-width="16" width="8.761" height="8.761"/>
<rect x="319.956" y="365.809" fill="none" stroke="#01426A" stroke-width="16" width="8.761" height="8.754"/>
<line fill="none" stroke="#01426A" stroke-width="16" x1="256.266" y1="252.229" x2="294.182" y2="218.239"/>
<line fill="none" stroke="#01426A" stroke-width="16" x1="259.266" y1="374.236" x2="259.266" y2="247.229"/>
</svg>
