<?xml version="1.0" encoding="utf-8"?>
<!-- Generator: Adobe Illustrator 16.0.5, SVG Export Plug-In . SVG Version: 6.00 Build 0)  -->
<!DOCTYPE svg PUBLIC "-//W3C//DTD SVG 1.1//EN" "http://www.w3.org/Graphics/SVG/1.1/DTD/svg11.dtd">
<svg version="1.1" id="Layer_1" xmlns="http://www.w3.org/2000/svg" xmlns:xlink="http://www.w3.org/1999/xlink" x="0px" y="0px"
	 width="612px" height="792px" viewBox="0 0 612 792" enable-background="new 0 0 612 792" xml:space="preserve">
<path fill="#01426A" d="M292.047,129.601c-7.112-22.271-27.969-38.399-52.601-38.399c-21.959,0-40.923,12.82-49.817,31.381
	c-1.781-0.007-3.574-0.015-5.391-0.015c-93.463,0-142.527,13.634-142.527,13.634v107.352c0,0,4.441,1.231,13.18,2.956v32.677h28.156
	l6.014-27.347h190.342l6.018,27.347h28.157V246.51c8.742-1.725,13.18-2.956,13.18-2.956V136.202
	C326.765,136.202,315.003,132.938,292.047,129.601z M152.028,213.455H70.436v-17.175h81.593V213.455z M152.028,174.195H70.436
	V157.02h81.593V174.195z M239.77,183.704c-19.821,0-35.887-16.066-35.887-35.887c0-19.82,16.066-35.887,35.887-35.887
	c19.82,0,35.887,16.066,35.887,35.887C275.656,167.637,259.59,183.704,239.77,183.704z"/>
<path fill="#01426A" d="M531.592,155.962v34.104c0,23.768-20.077,43.848-43.848,43.848l0,0h-19.488
	c-23.768,0-43.849-20.08-43.849-43.848v-34.104H404.92v34.104c0,34.333,29.003,63.336,63.336,63.336v34.104h-41.412v19.488h102.312
	v-19.488h-41.412v-34.104l0,0c34.333,0,63.336-29.003,63.336-63.336v-34.104H531.592z"/>
<path fill="#01426A" d="M468.256,219.298h19.488c13.92,0,26.279-10.92,28.755-24.36h-28.957v-9.744h29.434v-9.744h-29.434v-9.744
	h29.434v-9.744h-29.434v-9.744h29.434v-9.744h-29.434v-9.744h29.434v-9.744h-29.434v-9.744h29.434v-9.744h-29.434v-9.744h28.957
	c-2.476-13.439-14.835-24.36-28.755-24.36h-19.488c-15.573,0-29.231,13.659-29.231,29.232v97.44
	C439.024,205.64,452.683,219.298,468.256,219.298z"/>
<g>
	<path fill="#01426A" d="M303.758,487.68l11.268,12.889c34.053-29.774,77.577-46.171,122.565-46.171
		c44.989,0,88.513,16.401,122.571,46.181l11.266-12.888c-37.18-32.514-84.711-50.416-133.837-50.416
		C388.464,437.274,340.932,455.178,303.758,487.68z"/>
	<path fill="#01426A" d="M342.221,531.713l11.269,12.884c23.364-20.437,53.235-31.688,84.102-31.688
		c30.862,0,60.731,11.252,84.111,31.692l11.268-12.894c-26.502-23.163-60.374-35.921-95.379-35.921
		C402.575,495.787,368.709,508.544,342.221,531.713z"/>
	<path fill="#01426A" d="M378.113,572.805l11.267,12.885c13.397-11.717,30.52-18.166,48.206-18.166
		c17.701,0,34.818,6.449,48.211,18.166l11.267-12.885c-16.508-14.448-37.638-22.403-59.478-22.403
		C415.751,550.401,394.631,558.356,378.113,572.805z"/>
	<path fill="#01426A" d="M410.49,609.854l11.268,12.894c3.166-2.774,8.498-6.076,15.833-6.076c7.355,0,12.672,3.297,15.838,6.071
		l11.272-12.883c-7.597-6.646-17.223-10.311-27.11-10.311C427.723,599.554,418.102,603.213,410.49,609.854z"/>
</g>
<g>
	<circle fill="none" stroke="#01426A" stroke-width="10" cx="137.402" cy="386.56" r="47.329"/>
	<polyline fill="none" stroke="#01426A" stroke-width="10" stroke-linecap="round" stroke-linejoin="round" points="
		191.631,570.698 179.365,574.751 179.365,622.324 179.365,628.264 179.365,701.154 95.523,701.154 95.523,628.696 95.523,622.324 
		95.523,574.324 73.814,567.938 73.814,465.799 92.972,448.352 181.504,448.352 200.643,466.225 200.643,546.884 160.578,561.33 	
		"/>
</g>
<rect x="124.424" y="494.009" fill="none" stroke="#01426A" stroke-width="10" width="5.094" height="5.099"/>
<rect x="124.424" y="514.377" fill="none" stroke="#01426A" stroke-width="10" width="5.094" height="5.099"/>
<rect x="124.424" y="534.746" fill="none" stroke="#01426A" stroke-width="10" width="5.094" height="5.094"/>
<rect x="145.352" y="494.009" fill="none" stroke="#01426A" stroke-width="10" width="5.098" height="5.099"/>
<rect x="124.424" y="473.636" fill="none" stroke="#01426A" stroke-width="10" width="5.094" height="5.098"/>
<rect x="145.352" y="473.636" fill="none" stroke="#01426A" stroke-width="10" width="5.098" height="5.098"/>
<rect x="145.352" y="514.377" fill="none" stroke="#01426A" stroke-width="10" width="5.098" height="5.099"/>
<rect x="145.352" y="534.746" fill="none" stroke="#01426A" stroke-width="10" width="5.098" height="5.094"/>
<line fill="none" stroke="#01426A" stroke-width="10" x1="108.288" y1="468.65" x2="130.353" y2="448.87"/>
<line fill="none" stroke="#01426A" stroke-width="10" x1="110.033" y1="539.65" x2="110.033" y2="465.74"/>
</svg>
