<?xml version="1.0" encoding="utf-8"?>
<!-- Generator: Adobe Illustrator 16.0.5, SVG Export Plug-In . SVG Version: 6.00 Build 0)  -->
<!DOCTYPE svg PUBLIC "-//W3C//DTD SVG 1.1//EN" "http://www.w3.org/Graphics/SVG/1.1/DTD/svg11.dtd">
<svg version="1.1" id="Layer_1" xmlns="http://www.w3.org/2000/svg" xmlns:xlink="http://www.w3.org/1999/xlink" x="0px" y="0px"
	 width="612px" height="792px" viewBox="0 0 612 792" enable-background="new 0 0 612 792" xml:space="preserve">
<path fill="#01426A" d="M290.609,299.69c-0.101,18.126-16.69,37.625-38.191,37.625v307.203c-0.005,43.747-59.468,43.747-59.558,0
	V337.316c-20.867,0-39.089-16.146-39.049-40.188V127.846c-0.04-14.694,21.232-15.261,21.372,0.572v125.098h17.677V127.269
	c0-13.495,20.475-14.37,20.525,0.577v125.67h18.227V127.555c0.134-14.235,20.032-14.801,19.947,0.572v125.389h18.25V127.555
	c-0.067-14.089,20.716-14.661,20.806,0.572V299.69H290.609z"/>
<path fill="#01426A" d="M449.049,167.17v477.349c0.079,42.644-59.496,42.01-59.553,0V455.002h-31.637V167.17
	C357.826,100.155,449.128,100.155,449.049,167.17L449.049,167.17z"/>
</svg>
