<?xml version="1.0" encoding="utf-8"?>
<!-- Generator: Adobe Illustrator 16.0.5, SVG Export Plug-In . SVG Version: 6.00 Build 0)  -->
<!DOCTYPE svg PUBLIC "-//W3C//DTD SVG 1.1//EN" "http://www.w3.org/Graphics/SVG/1.1/DTD/svg11.dtd">
<svg version="1.1" id="Layer_1" xmlns="http://www.w3.org/2000/svg" xmlns:xlink="http://www.w3.org/1999/xlink" x="0px" y="0px"
	 width="1301.5px" height="612px" viewBox="0 0 1301.5 612" enable-background="new 0 0 1301.5 612" xml:space="preserve">
<g>
	<g>
		<path fill="#FFFFFF" d="M291.63,209.152c1.228-2.028,1.618-3.234,2.034-4.049c0.809-4.443,0.809-11.314,0.809-21.027
			c0-9.713-3.656-18.187-11.737-25.88c-6.878-6.473-15.371-10.909-25.868-13.329c-9.306-2.024-19.82-2.847-31.15-2.847h-35.181
			H97.54c-7.28,0-10.918,3.636-10.918,10.526v146.355c0,7.285,3.639,10.941,10.918,10.941h92.998h36.811
			c17.789,0,32.752-2.833,44.472-8.898c15.388-7.675,22.653-19.833,22.653-35.579V252.82c-0.412-3.238-0.412-5.269-0.809-6.869
			c-0.416-1.206-0.806-2.436-2.034-4.455c-0.813-1.612-2.409-4.053-4.05-6.488c-3.21-5.641-4.844-8.482-4.844-8.875
			c0-0.795,1.634-4.027,4.844-9.713C289.222,213.598,290.817,211.161,291.63,209.152z M263.744,264.945v3.621
			c-2.026,10.933-14.98,16.2-40.04,16.2h-33.167h-73.17V239.07h73.17h35.585c25.083,0,37.621,6.058,37.621,17.393L263.744,264.945
			L263.744,264.945z M225.321,213.994h-34.784h-72.771v-47.3h72.771h33.578c25.471,0,38.81,6.048,39.628,17.798
			c0.807,6.057,1.208,10.908,1.208,14.148C264.952,208.727,251.618,213.994,225.321,213.994z"/>
		<path fill="#FFFFFF" d="M227.349,310.342H97.54c-7.577,0-11.418-3.849-11.418-11.441V152.546c0-7.213,3.948-11.026,11.418-11.026
			h128.178c12.19,0,22.414,0.935,31.257,2.858c10.526,2.427,19.062,6.827,26.104,13.453c8.004,7.621,11.895,16.205,11.895,26.245
			c0,9.654,0,16.629-0.817,21.116l-0.046,0.138c-0.118,0.231-0.234,0.495-0.369,0.802c-0.337,0.767-0.798,1.817-1.683,3.278
			c-0.581,1.453-1.606,3.167-2.794,5.15c-0.405,0.677-0.826,1.381-1.25,2.11c-3.947,6.992-4.776,9.005-4.776,9.461
			c0.093,0.397,1.7,3.22,4.133,7.493l0.646,1.135c1.517,2.248,3.204,4.809,4.062,6.51c1.167,1.916,1.586,3.134,1.99,4.312
			l0.07,0.205c0.255,1.02,0.354,2.133,0.478,3.542c0.086,0.974,0.186,2.098,0.354,3.426l0.004,12.608
			c0,16.316-7.715,28.438-22.93,36.026C260.57,307.329,245.53,310.342,227.349,310.342z M97.54,142.52
			c-6.913,0-10.418,3.373-10.418,10.026v146.355c0,7.026,3.408,10.441,10.418,10.441h129.809c18.019,0,32.904-2.975,44.242-8.842
			c14.855-7.409,22.383-19.229,22.383-35.135V252.82c-0.167-1.282-0.267-2.408-0.354-3.401c-0.121-1.366-0.216-2.445-0.44-3.347
			l-0.058-0.164c-0.387-1.128-0.788-2.294-1.918-4.152c-0.852-1.687-2.518-4.214-4.037-6.469l-0.666-1.167
			c-3.62-6.358-4.264-7.526-4.264-7.988c0-0.656,0.595-2.317,4.909-9.958c0.43-0.739,0.853-1.446,1.26-2.126
			c1.166-1.948,2.173-3.631,2.761-5.083c0.887-1.477,1.333-2.493,1.659-3.234c0.131-0.297,0.245-0.557,0.36-0.787
			c0.788-4.402,0.788-11.316,0.788-20.867c0-9.751-3.789-18.099-11.582-25.518c-6.907-6.5-15.293-10.819-25.635-13.204
			c-8.766-1.907-18.92-2.834-31.038-2.834H97.54z M223.704,285.266H116.867V238.57h109.255c25.295,0,38.121,6.02,38.121,17.893
			l0.001,12.103C262.165,279.833,248.906,285.266,223.704,285.266z M117.867,284.266h105.837c24.643,0,37.579-5.166,39.548-15.792
			l-0.009-12.012c0-13.962-20.187-16.893-37.121-16.893H117.867V284.266z M225.321,214.494H117.266v-48.3h106.849
			c25.782,0,39.283,6.145,40.127,18.264c0.79,5.924,1.209,10.839,1.209,14.183c0,5.259-3.456,9.271-10.272,11.925
			C248.484,213.172,238.438,214.494,225.321,214.494z M118.266,213.494h107.055c12.993,0,22.917-1.299,29.496-3.86
			c6.394-2.489,9.635-6.188,9.635-10.994c0-3.3-0.416-8.169-1.204-14.082c-0.804-11.533-13.969-17.364-39.132-17.364H118.266
			V213.494z"/>
	</g>
	<g>
		<path fill="#FFFFFF" d="M431.137,177.603h-25.882h-22.652c-17.371,0-31.93,2.842-43.25,8.889
			c-16.186,7.693-23.856,18.994-23.856,33.578v48.496c0,14.972,7.672,25.903,23.856,33.178c12.935,5.268,27.501,8.1,43.25,8.1
			h22.652h25.882c17.789,0,31.547-2.832,42.044-8.1c14.971-6.881,22.667-17.78,22.667-33.178v-48.912
			C495.848,191.746,474.387,177.603,431.137,177.603z M466.32,268.566c0,6.092-4.856,10.537-14.154,13.766
			c-6.888,2.038-14.148,3.249-21.835,3.249h-25.076h-22.246c-8.895,0-16.569-1.211-23.445-3.249
			c-10.12-2.833-14.966-7.268-14.966-13.766V220.07c0-6.475,4.846-11.346,14.569-14.584c7.271-2.401,14.947-3.204,23.841-3.204
			h22.246h25.076c23.859,0,35.989,5.247,35.989,15.75L466.32,268.566L466.32,268.566z"/>
		<path fill="#FFFFFF" d="M431.137,310.344h-48.534c-15.566,0-30.181-2.737-43.438-8.137c-16.268-7.312-24.168-18.314-24.168-33.641
			V220.07c0-14.966,8.123-26.416,24.142-34.029c11.094-5.927,25.725-8.938,43.465-8.938h48.534
			c43.271,0,65.211,14.316,65.211,42.551v48.912c0,15.314-7.724,26.63-22.958,33.632
			C462.473,307.677,448.646,310.344,431.137,310.344z M382.603,178.103c-17.574,0-32.046,2.971-43.014,8.83
			c-15.662,7.444-23.592,18.59-23.592,33.137v48.496c0,14.892,7.707,25.595,23.562,32.722c13.121,5.343,27.608,8.056,43.045,8.056
			h48.534c17.351,0,31.03-2.632,41.82-8.046c15.072-6.928,22.391-17.632,22.391-32.731v-48.912
			c0-27.571-21.604-41.551-64.211-41.551H382.603z M430.331,286.081h-47.322c-8.449,0-16.165-1.069-23.587-3.27
			c-10.309-2.886-15.324-7.546-15.324-14.246V220.07c0-6.697,5.017-11.763,14.911-15.059c6.765-2.233,14.166-3.229,23.999-3.229
			h47.322c24.212,0,36.489,5.467,36.489,16.25l0.001,50.534c0,6.195-4.74,10.852-14.49,14.238
			C444.873,285.012,437.684,286.081,430.331,286.081z M383.008,202.782c-9.722,0-17.026,0.98-23.684,3.178
			c-9.439,3.144-14.226,7.891-14.226,14.109v48.496c0,6.275,4.64,10.496,14.601,13.285c7.336,2.174,14.959,3.23,23.311,3.23h47.322
			c7.255,0,14.352-1.056,21.693-3.229c9.276-3.222,13.796-7.57,13.796-13.287l-0.001-50.534c0-10.119-11.94-15.25-35.489-15.25
			H383.008z"/>
	</g>
	<g>
		<path fill="#FFFFFF" d="M630.476,177.603h-25.875h-22.648c-17.393,0-31.544,2.842-43.248,8.889
			c-16.171,7.693-23.875,18.994-23.875,33.578v48.496c0,14.972,8.088,25.903,23.875,33.178c12.933,5.268,27.493,8.1,43.645,8.1
			h22.253h25.875c17.818,0,31.947-2.832,42.475-8.1c14.535-6.881,22.224-17.78,22.224-33.178v-48.912
			C695.173,191.746,673.724,177.603,630.476,177.603z M665.657,268.566c0,6.092-4.854,10.537-14.153,13.766
			c-6.87,2.038-14.132,3.249-21.425,3.249H604.6h-21.825c-9.298,0-16.994-1.211-23.856-3.249
			c-10.115-2.833-14.965-7.268-14.965-13.766V220.07c0-6.475,4.851-11.346,14.562-14.584c7.266-2.401,14.962-3.204,23.832-3.204
			H604.6h25.086c23.827,0,35.973,5.247,35.973,15.75L665.657,268.566L665.657,268.566z"/>
		<path fill="#FFFFFF" d="M630.477,310.344h-48.128c-15.83,0-30.578-2.737-43.833-8.137c-16.056-7.398-24.187-18.714-24.187-33.641
			V220.07c0-14.954,8.128-26.402,24.16-34.029c11.635-6.012,25.856-8.938,43.463-8.938h48.523c43.261,0,65.197,14.316,65.199,42.551
			v48.912c0,15.244-7.573,26.559-22.51,33.63C662.364,307.601,647.998,310.344,630.477,310.344z M581.952,178.103
			c-17.443,0-31.515,2.89-43.019,8.833c-15.668,7.454-23.604,18.599-23.604,33.133v48.496c0,14.707,7.714,25.411,23.584,32.724
			c13.114,5.341,27.735,8.054,43.435,8.054h48.128c17.365,0,31.58-2.707,42.251-8.047c14.566-6.896,21.947-17.907,21.947-32.731
			v-48.912c-0.002-27.571-21.602-41.551-64.199-41.551H581.952z M630.079,286.081h-47.305c-8.741,0-16.591-1.069-23.999-3.27
			c-10.308-2.887-15.322-7.547-15.322-14.246V220.07c0-6.694,5.014-11.761,14.903-15.058c6.759-2.234,14.158-3.229,23.99-3.229
			h47.339c24.201,0,36.473,5.467,36.473,16.25v50.534c-0.001,6.196-4.741,10.853-14.49,14.238
			C644.333,284.981,637.077,286.081,630.079,286.081z M582.347,202.782c-9.722,0-17.023,0.98-23.675,3.178
			c-9.434,3.146-14.218,7.894-14.218,14.109v48.496c0,6.273,4.639,10.495,14.6,13.285c7.322,2.174,15.079,3.23,23.722,3.23h47.305
			c6.901,0,14.062-1.086,21.282-3.229c9.276-3.221,13.796-7.57,13.796-13.287l0.001-50.534c0-10.119-11.935-15.25-35.473-15.25
			H582.347z"/>
	</g>
	<g>
		<path fill="#FFFFFF" d="M804.357,285.581h-19.406c-6.483,0-15.378-0.813-21.021-4.86c-3.249-2.426-5.28-7.693-5.28-11.746v-39.606
			h-0.407v-26.282h46.114c7.271,0,10.918-3.654,10.918-10.923c0-8.919-3.646-13.329-10.918-13.329h-46.114v-26.287
			c0-4.861-2.01-8.101-5.665-9.703c-1.19-0.417-5.234-0.823-12.531-0.823c-7.271,0-10.897,3.636-10.897,10.526v26.287h-9.308
			c-2.443,0.382-4.042,0.382-5.253,0.798c-4.464,1.229-6.876,5.259-6.876,11.325c0,6.057,2.412,9.704,6.876,11.326
			c1.211,0.396,2.81,0.396,5.253,0.396c2.407,0.405,5.646,0.405,9.308,0.405v26.282v27.898c0,14.156,0.809,27.104,10.097,38.003
			c10.507,12.546,23.865,14.574,39.224,14.574h25.892c7.271,0,10.918-3.655,10.918-10.941
			C815.275,290.026,811.629,285.581,804.357,285.581z"/>
		<path fill="#FFFFFF" d="M804.361,310.342H778.47c-16.358,0-29.354-2.509-39.607-14.753c-9.432-11.067-10.213-24.443-10.213-38.324
			v-53.68c-3.513-0.001-6.553-0.019-8.891-0.412c-2.394,0.005-4.038,0.007-5.325-0.414c-4.797-1.743-7.221-5.711-7.221-11.801
			c0-6.328,2.572-10.521,7.243-11.807c0.767-0.265,1.688-0.367,2.854-0.496c0.711-0.079,1.521-0.168,2.455-0.314l8.885-0.005
			v-25.788c0-7.213,3.941-11.026,11.397-11.026c6.429,0,11.176,0.318,12.696,0.851c3.938,1.725,6,5.238,6,10.175v25.787h45.614
			c7.576,0,11.418,4.653,11.418,13.829c0,7.58-3.842,11.423-11.418,11.423h-45.614v25.282h0.407v40.106
			c0,3.661,1.78,8.882,5.079,11.345c5.485,3.934,14.297,4.761,20.722,4.761h19.406c7.575,0,11.418,4.649,11.422,13.82
			C815.779,306.493,811.938,310.342,804.361,310.342z M719.842,179.335c-0.874,0.143-1.698,0.234-2.422,0.314
			c-1.104,0.123-1.978,0.219-2.669,0.457c-4.227,1.165-6.538,5.016-6.538,10.853c0,5.705,2.142,9.255,6.547,10.856
			c1.12,0.366,2.696,0.366,5.082,0.366c2.449,0.405,5.627,0.405,9.308,0.405h0.5v54.68c0,14.209,0.751,26.852,9.978,37.679
			c10.007,11.95,22.765,14.398,38.843,14.398h25.892c7.01,0,10.418-3.415,10.418-10.441c-0.004-8.626-3.413-12.82-10.422-12.82
			h-19.406c-6.571,0-15.604-0.859-21.312-4.954c-3.568-2.664-5.489-8.248-5.489-12.152v-39.106h-0.407v-27.282h46.614
			c7.01,0,10.418-3.409,10.418-10.423c0-8.633-3.408-12.829-10.418-12.829h-46.614v-26.787c0-4.574-1.806-7.684-5.366-9.245
			c-1.011-0.353-4.877-0.781-12.33-0.781c-6.899,0-10.397,3.373-10.397,10.026v26.787H719.842z"/>
	</g>
</g>
<g>
	<g>
		<path fill="#FFFFFF" d="M1039.177,142.369c-6.812,0-11.246,0-13.261,0.81c-3.975,1.191-6.385,4.397-6.385,9.636V259.79
			c0,10.806-6.411,18.035-19.246,21.228c-5.616,2.023-16.019,2.845-32.062,2.845h-41.667c-7.233,0-13.638-0.396-18.85-0.82
			c-5.208-0.399-9.613-1.183-13.625-2.024c-12.833-3.578-19.255-10.817-19.255-21.227V152.814c0-5.239-1.982-8.445-6.375-9.636
			c-2.016-0.81-6.431-0.81-13.244-0.81c-7.234,0-10.812,3.602-10.812,10.446v108.999c0,9.604,1.58,17.203,4.802,22.827
			c8.391,16.053,34.047,24.071,76.938,24.071h6.826c2.41,0,5.604,0.396,9.613,0.396h9.632c2.401,0,4.793,0.388,6.809,0.388
			c60.517,0,90.968-16.042,90.968-47.682V152.814C1049.982,145.97,1046.381,142.369,1039.177,142.369z"/>
		<path fill="#FFFFFF" d="M959.016,309.995c-0.984,0-2.037-0.089-3.151-0.183c-1.192-0.101-2.425-0.205-3.657-0.205h-9.632
			c-2.274,0-4.272-0.126-6.036-0.236c-1.363-0.086-2.54-0.16-3.577-0.16h-6.826c-42.904,0-68.939-8.189-77.381-24.339
			c-3.221-5.622-4.858-13.385-4.858-23.059V152.814c0-7.161,3.911-10.946,11.312-10.946c7.062,0,11.325,0,13.431,0.846
			c4.482,1.212,6.688,4.522,6.688,10.1v106.978c0,10.271,6.355,17.25,18.89,20.746c3.385,0.708,8.014,1.584,13.528,2.007
			c6.866,0.559,12.844,0.818,18.812,0.818h41.667c16.426,0,26.56-0.895,31.892-2.815c12.568-3.129,18.916-10.108,18.916-20.758
			V152.815c0-5.22,2.395-8.812,6.741-10.115c2.062-0.831,6.574-0.831,13.404-0.831c7.396,0,11.306,3.785,11.307,10.945v108.999
			C1050.483,293.784,1019.709,309.995,959.016,309.995z M855.208,142.868c-6.842,0-10.312,3.346-10.312,9.946v108.999
			c0,9.497,1.594,17.093,4.735,22.579c8.265,15.811,34.001,23.819,76.504,23.819h6.826c1.068,0,2.26,0.075,3.64,0.162
			c1.749,0.109,3.73,0.234,5.974,0.234h9.632c1.274,0,2.528,0.105,3.741,0.208c1.093,0.093,2.125,0.18,3.067,0.18
			c60.03,0,90.468-15.875,90.468-47.182V152.814c-0.001-6.599-3.469-9.945-10.307-9.945c-6.714,0-11.149,0-13.074,0.774
			c-3.986,1.197-6.071,4.363-6.071,9.172V259.79c0,11.168-6.603,18.474-19.625,21.713c-5.471,1.973-15.411,2.859-32.183,2.859
			h-41.667c-5.996,0-11.998-0.261-18.89-0.821c-5.57-0.427-10.241-1.311-13.688-2.033c-13.051-3.638-19.652-10.941-19.652-21.716
			V152.814c0-5.134-1.908-8.042-6.006-9.154C866.34,142.868,861.911,142.868,855.208,142.868z"/>
	</g>
	<g>
		<path fill="#FFFFFF" d="M1247.582,149.176c-12.023-4.42-26.89-6.808-43.698-6.808h-33.68h-92.953
			c-7.229,0-10.433,3.602-10.433,10.446v145.057c0,7.202,3.201,10.841,10.433,10.841c7.6,0,12.005-0.424,13.215-0.845
			c4.41-1.579,6.402-4.78,6.402-9.996V249.37h73.336h32.079c18.407,0,33.651-2.821,46.477-7.998
			c16.836-7.628,24.85-19.651,24.85-36.097v-26.053C1273.609,166.016,1264.797,155.994,1247.582,149.176z M1243.555,204.075
			c0,13.646-13.229,20.44-39.256,20.44h-34.095h-73.336v-57.69h73.336h33.68c26.441,0,39.671,5.179,39.671,14.779V204.075
			L1243.555,204.075z"/>
		<path fill="#FFFFFF" d="M1077.251,309.212c-7.356,0-10.933-3.709-10.933-11.341V152.814c0-7.365,3.576-10.946,10.933-10.946
			h126.633c16.531,0,31.701,2.365,43.871,6.838c17.491,6.928,26.354,17.193,26.354,30.516v26.053
			c0,16.931-8.225,28.887-25.144,36.553c-13.413,5.415-28.677,8.042-46.683,8.042h-104.915v48.001c0,5.496-2.14,8.822-6.733,10.467
			C1089.106,308.869,1083.854,309.212,1077.251,309.212z M1077.251,142.868c-6.776,0-9.933,3.16-9.933,9.946v145.057
			c0,7.055,3.156,10.341,9.933,10.341c7.393,0,11.882-0.41,13.051-0.817c4.194-1.501,6.066-4.439,6.066-9.523V248.87h105.915
			c17.875,0,33.017-2.604,46.289-7.962c16.505-7.478,24.537-19.137,24.537-35.633v-26.053c0-12.872-8.65-22.824-25.712-29.582
			c-12.048-4.429-27.1-6.772-43.514-6.772H1077.251z M1204.299,225.015h-107.931v-58.69h107.516
			c26.655,0,40.171,5.141,40.171,15.279v22.471C1244.055,217.97,1230.679,225.015,1204.299,225.015z M1097.368,224.015h106.931
			c25.717,0,38.756-6.709,38.756-19.94v-22.471c0-9.341-13.545-14.279-39.171-14.279h-106.516V224.015z"/>
	</g>
</g>
<g enable-background="new    ">
	<path fill="#FFFFFF" d="M260.809,459.685h-39.016v33.992h45.671v10.048h-58.524v-94.996h57.807v10.113h-44.953v30.73h39.016
		V459.685z"/>
	<path fill="#FFFFFF" d="M319.387,478.802l2.153,7.895h0.392l2.153-7.895l24.532-70.073h13.897l-35.297,94.996H316.19
		l-35.297-94.996h13.962L319.387,478.802z"/>
	<path fill="#FFFFFF" d="M434.793,459.685h-39.016v33.992h45.671v10.048h-58.524v-94.996h57.807v10.113h-44.953v30.73h39.016
		V459.685z"/>
	<path fill="#FFFFFF" d="M536.367,503.725h-12.854l-45.736-72.552l-0.391,0.131v72.421h-12.854v-94.996h12.854l45.736,72.486
		l0.391-0.13v-72.356h12.854V503.725z"/>
	<path fill="#FFFFFF" d="M631.025,418.842h-31.316v84.883h-12.854v-84.883H555.93v-10.113h75.096V418.842z"/>
	<path fill="#FFFFFF" d="M744.137,479.78c0-4.307-1.544-7.916-4.632-10.831c-3.089-2.913-8.525-5.393-16.312-7.438
		c-9.656-2.392-17.191-5.915-22.606-10.569c-5.416-4.654-8.123-10.505-8.123-17.551c0-7.438,2.913-13.637,8.742-18.595
		c5.828-4.959,13.396-7.438,22.705-7.438c10.004,0,17.975,2.839,23.912,8.515c5.938,5.677,8.818,12.299,8.646,19.867l-0.196,0.392
		h-12.266c0-5.394-1.882-9.853-5.644-13.375c-3.763-3.523-8.58-5.285-14.452-5.285c-6.002,0-10.602,1.458-13.799,4.371
		c-3.197,2.915-4.796,6.699-4.796,11.353c0,4.133,1.751,7.58,5.253,10.342c3.5,2.763,9.188,5.187,17.061,7.274
		c9.569,2.479,16.854,6.133,21.857,10.961c5.001,4.828,7.503,10.788,7.503,17.877c0,7.656-3.013,13.811-9.036,18.464
		c-6.025,4.655-13.887,6.981-23.586,6.981c-9.178,0-17.279-2.566-24.304-7.699c-7.024-5.132-10.429-12.005-10.211-20.617
		l0.131-0.391h12.266c0,5.959,2.262,10.559,6.786,13.799c4.522,3.24,9.633,4.86,15.332,4.86c6.089,0,10.906-1.37,14.451-4.11
		S744.137,484.478,744.137,479.78z"/>
	<path fill="#FFFFFF" d="M795.931,465.622v38.103h-12.853v-94.996h36.341c10.134,0,18.018,2.61,23.651,7.83
		c5.632,5.219,8.449,12.092,8.449,20.617c0,8.612-2.817,15.507-8.449,20.682c-5.634,5.177-13.518,7.765-23.651,7.765H795.931z
		 M795.931,455.574h23.488c6.437,0,11.243-1.729,14.419-5.187c3.175-3.458,4.763-7.818,4.763-13.082
		c0-5.262-1.599-9.656-4.795-13.179c-3.197-3.523-7.993-5.285-14.387-5.285h-23.488V455.574z"/>
	<path fill="#FFFFFF" d="M915.969,479.258h-35.754l-8.481,24.467h-13.114l34.253-94.996h11.026l33.536,94.996H924.32
		L915.969,479.258z M883.934,468.493h28.382l-13.832-40.778h-0.392L883.934,468.493z"/>
	<path fill="#FFFFFF" d="M1026.351,473.32l0.131,0.392c0.174,8.917-2.958,16.377-9.396,22.379c-6.438,6.003-14.94,9.004-25.51,9.004
		c-10.744,0-19.498-3.806-26.261-11.418c-6.765-7.611-10.146-17.267-10.146-28.968v-16.898c0-11.7,3.381-21.368,10.146-29.001
		c6.763-7.634,15.517-11.451,26.261-11.451c10.742,0,19.289,2.861,25.641,8.58c6.351,5.72,9.438,13.3,9.265,22.737l-0.131,0.392
		h-12.331c0-6.654-1.957-11.917-5.872-15.789c-3.914-3.871-9.438-5.807-16.571-5.807c-7.177,0-12.897,2.894-17.159,8.678
		c-4.264,5.785-6.395,12.962-6.395,21.53v17.029c0,8.655,2.131,15.876,6.395,21.66c4.262,5.786,9.982,8.678,17.159,8.678
		c7.133,0,12.657-1.925,16.571-5.773c3.915-3.85,5.872-9.167,5.872-15.953H1026.351z"/>
	<path fill="#FFFFFF" d="M1102.938,459.685h-39.017v33.992h45.671v10.048h-58.523v-94.996h57.807v10.113h-44.954v30.73h39.017
		V459.685z"/>
</g>
</svg>
