<?xml version="1.0" encoding="UTF-8"?>
<svg width="480px" height="316px" viewBox="0 0 480 316" version="1.1" xmlns="http://www.w3.org/2000/svg" xmlns:xlink="http://www.w3.org/1999/xlink">
    <!-- Generator: Sketch 41 (35326) - http://www.bohemiancoding.com/sketch -->
    <title>logo</title>
    <desc>Created with Sketch.</desc>
    <defs>
        <polygon id="path-1" points="375.561143 0.330429224 0.144216216 0.330429224 0.144216216 307.421253 375.561143 307.421253 375.561143 0.330429224"></polygon>
    </defs>
    <g id="Website-1.2" stroke="none" stroke-width="1" fill="none" fill-rule="evenodd">
        <g id="BootUpCapital.com-(4)" transform="translate(-480.000000, -214.000000)">
            <g id="logo" transform="translate(480.000000, 214.000000)">
                <g id="Group-3" transform="translate(91.531532, 0.391032)">
                    <mask id="mask-2" fill="white">
                        <use xlink:href="#path-1"></use>
                    </mask>
                    <g id="Clip-2"></g>
                    <path d="M343.925117,25.9818374 C286.377009,-20.9037607 168.752505,-1.69269224 82.3056577,68.7168694 C80.1103423,70.5068146 77.9625946,72.3119105 75.8544865,74.1292712 L85.349982,74.1292712 C163.964036,12.8829881 268.374126,-3.24022648 319.839351,38.8462119 C372.583135,81.5956731 351.033586,169.020175 271.91791,233.318239 C192.820252,297.586723 85.2793514,315.206248 32.7762883,272.456066 C19.5820541,261.720002 11.0825946,248.136331 6.96007207,232.862276 L0.144216216,232.862276 C3.96043243,251.877107 13.7398919,268.726833 29.7939459,281.766522 C87.3420541,328.644906 204.983856,309.463417 291.413405,239.038705 C378.075748,168.614714 401.714667,72.8746502 343.925117,25.9818374" id="Fill-1" fill="#FFFFFF" mask="url(#mask-2)"></path>
                </g>
                <path d="M446.473369,26.0101909 C436.819315,18.1000904 425.361297,11.9590128 412.760937,7.61004475 C422.155532,11.5759169 431.095351,16.7069489 438.891387,23.0464283 C498.725622,71.9081087 475.131387,170.625643 386.379676,243.011287 C311.872288,303.542602 214.869045,326.874657 149.989045,304.132036 C214.654991,331.637022 316.677333,309.071159 393.971027,245.967113 C482.918775,173.574976 506.531027,74.8718712 446.473369,26.0101909" id="Fill-4" fill="#F26D38"></path>
                <path d="M52.6552072,121.781133 C57.1056577,120.157846 59.3312432,117.043298 59.3312432,112.438211 C59.3312432,107.86054 56.7272793,104.732284 51.5215135,103.054887 C46.3143063,101.378211 39.6807928,100.539873 31.6188108,100.539873 L27.8703423,100.539873 C27.3449369,100.539873 26.537009,100.526887 25.4458378,100.500193 L25.4458378,120.862713 C25.4458378,122.273891 26.0757477,123.185097 27.3355676,123.597773 C28.5953874,124.010448 31.5128649,124.216786 36.0901622,124.216786 C42.6818739,124.216786 48.204036,123.405142 52.6552072,121.781133 L52.6552072,121.781133 Z M48.4980901,95.98601 C53.9561081,94.3858091 56.6861982,91.5187224 56.6861982,87.3854712 C56.6861982,82.5055078 53.5373694,79.211316 47.2382703,77.5043388 C43.7528649,76.570768 38.4620541,76.1039826 31.3665586,76.1039826 C28.6782703,76.1039826 27.0206126,76.2518822 26.3907027,76.5447954 C25.7607928,76.8384301 25.4458378,77.6385306 25.4458378,78.9443753 L25.4458378,97.4253251 L37.7276396,97.3055626 C42.051964,97.2528959 45.6425946,96.8128046 48.4980901,95.98601 L48.4980901,95.98601 Z M7.20720709e-05,125.653937 C5.18061261,125.468521 8.53268468,124.95917 10.0577297,124.125161 C11.5820541,123.291152 12.3452973,121.351864 12.3452973,118.307298 L12.3452973,81.9341105 C12.3452973,78.9263388 11.5820541,76.989937 10.0577297,76.1241836 C8.53268468,75.2598731 5.18061261,74.7469142 7.20720709e-05,74.5867498 L7.20720709e-05,73.0695169 L36.1211532,73.0695169 C46.4404324,73.0695169 54.6314234,74.1221288 60.6934054,76.2273525 C66.7553874,78.3318548 69.7874595,81.9550329 69.7874595,87.0968868 C69.7874595,90.9603114 67.6663784,93.8916082 63.4256577,95.8886128 C61.0321441,97.0342932 57.4422342,97.9801288 52.6552072,98.7261196 C58.5759279,99.630832 63.6353874,101.140129 67.8343063,103.25401 C72.0325045,105.369334 74.1326847,108.328047 74.1326847,112.13159 C74.1326847,118.514357 69.4761081,122.903005 60.1622342,125.296092 C55.2534054,126.546384 49.2116036,127.17117 42.0382703,127.17117 L7.20720709e-05,127.17117 L7.20720709e-05,125.653937 Z" id="Fill-6" fill="#FFFFFF"></path>
                <path d="M105.070054,94.1915196 C100.863207,96.6134648 98.7601441,100.792889 98.7601441,106.728351 C98.7601441,111.466908 100.452396,115.885858 103.839063,119.984479 C107.225009,124.083821 111.92627,126.132771 117.942126,126.132771 C122.654198,126.132771 126.283027,124.762716 128.827892,122.020442 C131.372757,119.279611 132.64555,115.686013 132.64555,111.240369 C132.64555,106.636004 131.025369,102.296415 127.787171,98.2237662 C124.546811,94.1511178 119.85636,92.1151543 113.714378,92.1151543 C110.391135,92.1151543 107.509694,92.8077571 105.070054,94.1915196 M95.0116757,95.2095014 C100.323387,91.5495288 107.157261,89.7199032 115.513297,89.7199032 C123.827532,89.7199032 130.714018,91.4499671 136.172757,94.910095 C141.630775,98.3702228 144.360865,102.97531 144.360865,108.725355 C144.360865,114.022323 141.715099,118.626689 136.424288,122.539173 C131.134198,126.452378 124.289514,128.408981 115.891676,128.408981 C107.829694,128.408981 101.005189,126.53246 95.4217658,122.779419 C89.8369009,119.026378 87.0448288,114.314515 87.0448288,108.645273 C87.0448288,103.348305 89.699964,98.869474 95.0116757,95.2095014" id="Fill-8" fill="#FFFFFF"></path>
                <path d="M169.566414,94.1915196 C165.359568,96.6134648 163.256505,100.792889 163.256505,106.728351 C163.256505,111.466908 164.948757,115.885858 168.335423,119.984479 C171.721369,124.083821 176.422631,126.132771 182.439207,126.132771 C187.150559,126.132771 190.779387,124.762716 193.324252,122.020442 C195.869838,119.279611 197.14191,115.686013 197.14191,111.240369 C197.14191,106.636004 195.52173,102.296415 192.282811,98.2237662 C189.043892,94.1511178 184.353441,92.1151543 178.210739,92.1151543 C174.886775,92.1151543 172.005333,92.8077571 169.566414,94.1915196 M159.508036,95.2095014 C164.819748,91.5495288 171.653622,89.7199032 180.009658,89.7199032 C188.324613,89.7199032 195.209658,91.4499671 200.668396,94.910095 C206.127135,98.3702228 208.856505,102.97531 208.856505,108.725355 C208.856505,114.022323 206.211459,118.626689 200.919928,122.539173 C195.630559,126.452378 188.785153,128.408981 180.388036,128.408981 C172.326775,128.408981 165.50155,126.53246 159.918126,122.779419 C154.333261,119.026378 151.541189,114.314515 151.541189,108.645273 C151.541189,103.348305 154.196324,98.869474 159.508036,95.2095014" id="Fill-10" fill="#FFFFFF"></path>
                <path d="M245.576793,90.3584685 L245.576793,93.2327699 L232.728505,93.2327699 L232.602378,116.23151 C232.602378,118.254487 232.874811,119.784706 233.421117,120.822889 C234.428685,122.659729 236.402739,123.577427 239.341838,123.577427 C240.853189,123.577427 242.165622,123.35161 243.278414,122.899254 C244.390486,122.446898 245.660396,121.727601 247.088865,120.742806 L248.726342,121.621546 L247.340396,122.819172 C245.156613,124.682706 242.847423,126.000094 240.412108,126.772058 C237.976793,127.544021 235.625081,127.930003 233.358414,127.930003 C228.402739,127.930003 225.04418,126.532532 223.280577,123.737592 C222.31409,122.220359 221.831928,120.118021 221.831928,117.429135 L221.831928,93.2327699 L214.966342,93.2327699 C214.755892,93.1534091 214.598775,93.0733269 214.49427,92.9932447 C214.389045,92.913884 214.336432,92.8078292 214.336432,92.6743589 C214.336432,92.4081397 214.430847,92.2018018 214.620396,92.0553452 C214.809225,91.90961 215.408144,91.5698018 216.414991,91.0373635 C219.313009,89.5201306 221.400937,88.2893178 222.681658,87.3442037 C223.963099,86.399811 226.974991,83.9042767 231.720216,79.8576009 C232.265802,79.8576009 232.590847,79.884295 232.696793,79.9376831 C232.800577,79.9910712 232.854631,80.190916 232.854631,80.5364959 L232.854631,90.3584685 L245.576793,90.3584685 Z" id="Fill-12" fill="#FFFFFF"></path>
                <path d="M286.957694,73.0698055 L286.957694,74.5870384 C282.002739,74.8005909 278.790486,75.3258146 277.321658,76.1641525 C275.851387,77.0032119 275.116973,78.9259059 275.116973,81.9336776 L275.116973,108.085924 C275.116973,112.372125 276.040216,115.711769 277.888144,118.107742 C281.330306,122.474025 287.860757,124.655723 297.476613,124.655723 C308.015712,124.655723 315.090306,122.419915 318.702559,117.948299 C320.717694,115.446271 321.725261,111.586454 321.725261,106.369568 L321.725261,85.0879059 C321.725261,80.6429836 320.884901,77.8552575 319.206342,76.7232849 C317.526342,75.5920338 314.33427,74.8806731 309.632288,74.5870384 L309.632288,73.0698055 L339.487423,73.0698055 L339.487423,74.5870384 C334.489225,74.9333397 331.225081,75.69881 329.692829,76.8834493 C328.159856,78.0680886 327.39373,80.8024265 327.39373,85.0879059 L327.39373,106.369568 C327.39373,112.012837 326.029405,116.417358 323.300036,119.585294 C318.261477,125.4147 308.687423,128.329404 294.579315,128.329404 C280.637694,128.329404 271.148685,125.454381 266.110126,119.705057 C263.380036,116.617203 262.016432,112.544554 262.016432,107.487111 L262.016432,81.9336776 C262.016432,78.9533215 261.292108,77.0428922 259.843459,76.2045543 C258.39409,75.3662164 255.23445,74.8265635 250.364541,74.5870384 L250.364541,73.0698055 L286.957694,73.0698055 Z" id="Fill-14" fill="#FFFFFF"></path>
                <path d="M367.231495,123.839101 C369.393658,124.730106 371.944288,125.175247 374.884108,125.175247 C379.418883,125.175247 383.292757,123.746754 386.505009,120.888325 C389.716541,118.031339 391.323027,114.050316 391.323027,108.945978 C391.323027,104.054471 389.653838,100.399549 386.315459,97.9804895 C382.977802,95.5607087 379.104649,94.3508183 374.694559,94.3508183 C371.587532,94.3508183 368.752937,94.9561242 366.192937,96.1652932 C363.630775,97.3751836 362.350775,98.5648731 362.350775,99.7336402 L362.350775,119.791704 C363.441225,121.599686 365.068613,122.948097 367.231495,123.839101 L367.231495,123.839101 Z M342.383928,143.661247 C346.303928,143.501083 348.79618,142.968645 349.859243,142.063932 C350.921586,141.158499 351.453477,139.734334 351.453477,137.792161 L351.453477,99.4616493 C351.453477,97.4393936 351.065009,96.1414849 350.288793,95.5686447 C349.511135,94.996526 348.053117,94.7101059 345.911135,94.7101059 C345.448432,94.7101059 345.018883,94.7245352 344.620324,94.7505078 C344.220324,94.7772018 343.643748,94.83059 342.888432,94.9099507 L342.888432,93.5925626 L348.871135,92.3545352 C349.080865,92.3285626 353.301405,91.4101425 361.531315,89.5999963 C361.741045,89.5999963 361.898883,89.6598776 362.004108,89.7796402 C362.108613,89.8994027 362.161225,90.0386447 362.161225,90.1988091 L362.161225,95.5866813 C364.933117,93.8306447 367.366991,92.5269644 369.467892,91.6749187 C373.246631,90.1858228 377.129874,89.439832 381.119784,89.439832 C386.914378,89.439832 391.900324,91.0025169 396.078342,94.1264438 C400.25564,97.2503708 402.34573,101.52575 402.34573,106.949695 C402.34573,112.268307 399.835459,117.094882 394.818523,121.4287 C389.800144,125.763238 383.491676,127.929786 375.892396,127.929786 C373.539964,127.929786 371.503928,127.743649 369.782126,127.371375 C367.095279,126.812964 364.617441,125.788489 362.350775,124.297951 L362.350775,137.392471 C362.350775,140.080636 363.042667,141.730617 364.428613,142.343138 C365.814559,142.955658 368.837982,143.367613 373.498162,143.581165 L373.498162,144.978636 L342.383928,144.978636 L342.383928,143.661247 Z" id="Fill-16" fill="#FFFFFF"></path>
                <path d="M62.2072072,152.426279 C67.2990991,153.336763 70.1488288,153.792005 70.7592793,153.792005 C72.0205405,153.792005 73.2169369,153.571238 74.3491892,153.129704 C75.4807207,152.688891 76.2641441,151.999174 76.6994595,151.060553 L79.5066667,151.060553 L80.747027,170.097028 L77.6789189,170.097028 C75.8936937,166.317293 73.5657658,163.268398 70.6936937,160.951065 C65.2104505,156.591996 57.8331532,154.412462 48.5632432,154.412462 C39.2054054,154.412462 31.5578378,156.757932 25.6169369,161.44743 C19.676036,166.138371 16.7059459,172.594005 16.7059459,180.815777 C16.7059459,188.374526 19.8281081,194.408827 26.0738739,198.920124 C32.3181982,203.431421 40.2288288,205.685987 49.8036036,205.685987 C56.7232432,205.685987 63.0987387,204.638426 68.9315315,202.541138 C72.2821622,201.355777 75.9592793,199.562225 79.9636036,197.161202 L82.4443243,198.733987 C79.4843243,201.107595 75.8072072,203.189732 71.4115315,204.983284 C63.9261261,208.018471 55.8093694,209.534983 47.061982,209.534983 C32.7001802,209.534983 21.2969369,206.624608 12.8544144,200.803859 C5.06342342,195.423923 1.16936937,188.705677 1.16936937,180.64912 C1.16936937,172.400654 5.2818018,165.476069 13.5073874,159.874645 C22.1668468,153.999065 33.4389189,151.060553 47.3228829,151.060553 C52.1538739,151.060553 57.1153153,151.515795 62.2072072,152.426279" id="Fill-18" fill="#FFFFFF"></path>
                <path d="M125.334342,185.202045 C120.328937,186.250328 116.194883,187.409716 112.930739,188.678045 C106.664072,191.13462 103.530378,193.920182 103.530378,197.036894 C103.530378,199.5483 104.836324,201.396684 107.447495,202.582766 C109.144793,203.355451 111.037405,203.741433 113.126775,203.741433 C115.998847,203.741433 118.751279,203.23136 121.384793,202.209771 C124.017586,201.189625 125.334342,199.893159 125.334342,198.321095 L125.334342,185.202045 Z M101.376144,189.877835 C105.379748,188.222803 113.365333,185.974008 125.334342,183.132894 L125.334342,179.615049 C125.334342,176.800629 124.899027,174.842584 124.028396,173.738748 C122.548757,171.890364 119.479928,170.966173 114.824072,170.966173 C112.604252,170.966173 110.493261,171.32546 108.49182,172.042593 C106.489658,172.786419 105.488577,173.808008 105.488577,175.104474 C105.488577,175.435625 105.596685,175.994036 105.815063,176.780428 C106.032,177.566821 106.14155,178.070401 106.14155,178.290447 C106.14155,179.836538 105.335784,180.912958 103.726414,181.518985 C102.81182,181.878273 101.723532,182.057195 100.46227,182.057195 C98.5033514,182.057195 97.0020901,181.64957 95.9577658,180.835762 C94.9134414,180.021953 94.3909189,179.118684 94.3909189,178.125232 C94.3909189,176.195323 96.2727207,174.173068 100.037766,172.062794 C103.801369,169.951798 109.317766,168.897022 116.586234,168.897022 C125.029477,168.897022 130.752721,170.635022 133.755964,174.111022 C135.365333,176.014958 136.171099,178.787533 136.171099,182.428748 L136.171099,199.023798 C136.171099,200.624721 136.344072,201.727835 136.692901,202.334584 C137.257946,203.410282 138.433441,203.948492 140.218667,203.948492 C141.219027,203.948492 142.046414,203.852538 142.699387,203.658465 C143.35236,203.465835 144.483171,202.996163 146.093982,202.252337 L146.093982,204.403734 C144.700829,205.479433 143.198847,206.362501 141.589477,207.052218 C139.151279,208.101223 136.670559,208.625004 134.147315,208.625004 C131.187315,208.625004 129.043892,208.018255 127.717045,206.803314 C126.388757,205.590538 125.660829,204.141844 125.529658,202.458675 C122.22227,204.279643 119.393441,205.63094 117.043892,206.51473 C113.082811,208.003826 109.317766,208.749095 105.750198,208.749095 C102.006054,208.749095 98.764973,207.914364 96.0233514,206.245625 C93.281009,204.576163 91.9101982,202.458675 91.9101982,199.893159 C91.9101982,195.892657 95.0647928,192.554456 101.376144,189.877835 L101.376144,189.877835 Z" id="Fill-20" fill="#FFFFFF"></path>
                <path d="M172.761441,204.674426 C175.002162,205.597897 177.645766,206.058911 180.693694,206.058911 C185.393514,206.058911 189.408649,204.578472 192.737658,201.616153 C196.066667,198.654554 197.731532,194.528518 197.731532,189.238043 C197.731532,184.168335 196.001802,180.379942 192.541622,177.872865 C189.082162,175.365066 185.067027,174.111166 180.496216,174.111166 C177.276036,174.111166 174.338378,174.738116 171.683964,175.991294 C169.028829,177.244472 167.701982,178.478171 167.701982,179.689504 L167.701982,200.479851 C168.832793,202.353486 170.519279,203.751678 172.761441,204.674426 L172.761441,204.674426 Z M147.007928,225.219477 C151.070631,225.054262 153.652973,224.501623 154.754955,223.564445 C155.856216,222.625824 156.408288,221.149714 156.408288,219.136116 L156.408288,179.408134 C156.408288,177.311568 156.005405,175.966764 155.20036,175.373723 C154.394595,174.779961 152.882523,174.48344 150.663423,174.48344 C150.184144,174.48344 149.738018,174.497869 149.325045,174.525285 C148.911351,174.5527 148.313153,174.607532 147.52973,174.689778 L147.52973,173.324774 L153.731532,172.042737 C153.948468,172.0146 158.322523,171.062993 166.852973,169.186472 C167.070631,169.186472 167.233514,169.247796 167.342342,169.372609 C167.451171,169.4967 167.505946,169.640993 167.505946,169.80765 L167.505946,175.39176 C170.378018,173.572235 172.901982,172.220216 175.078559,171.337869 C178.995676,169.793221 183.02018,169.021258 187.156396,169.021258 C193.161441,169.021258 198.329009,170.640216 202.65982,173.878134 C206.98991,177.116774 209.154955,181.546545 209.154955,187.168892 C209.154955,192.681577 206.555315,197.684189 201.353874,202.176006 C196.153874,206.668545 189.614054,208.914454 181.738018,208.914454 C179.29982,208.914454 177.188829,208.721102 175.405045,208.335121 C172.619459,207.755787 170.052252,206.695239 167.701982,205.149869 L167.701982,218.721997 C167.701982,221.509002 168.41982,223.218865 169.856216,223.853751 C171.291892,224.487915 174.425586,224.915742 179.256577,225.136509 L179.256577,226.584481 L147.007928,226.584481 L147.007928,225.219477 Z" id="Fill-22" fill="#FFFFFF"></path>
                <path d="M226.194739,151.634404 C227.500685,150.783079 229.110054,150.356696 231.025009,150.356696 C232.896,150.356696 234.496,150.776586 235.823568,151.613481 C237.150414,152.451098 237.814198,153.47413 237.814198,154.681856 C237.814198,155.862166 237.150414,156.87149 235.823568,157.709107 C234.496,158.546002 232.896,158.964449 231.025009,158.964449 C229.110054,158.964449 227.500685,158.546002 226.194739,157.709107 C224.888793,156.87149 224.23582,155.862166 224.23582,154.681856 C224.23582,153.500824 224.888793,152.485006 226.194739,151.634404 L226.194739,151.634404 Z M215.814919,206.969755 C220.471495,206.693436 223.409153,206.190577 224.627892,205.459016 C225.84591,204.728175 226.45564,202.748486 226.45564,199.519947 L226.45564,179.780769 C226.45564,177.987216 226.259604,176.746303 225.868252,176.056586 C225.215279,174.925335 223.844468,174.358988 221.755099,174.358988 C221.27582,174.358988 220.808793,174.387125 220.351856,174.441956 C219.894919,174.497509 218.578162,174.718276 216.402306,175.104258 L216.402306,173.8215 L219.209514,173.242166 C226.824649,171.670102 232.134919,170.48402 235.138162,169.68392 C236.35618,169.352769 237.139604,169.186111 237.488432,169.186111 C237.574919,169.380184 237.618883,169.586522 237.618883,169.807289 L237.618883,199.519947 C237.618883,202.664796 238.21636,204.638714 239.414198,205.438093 C240.610595,206.238915 243.319784,206.748988 247.541766,206.969755 L247.541766,208.128422 L215.814919,208.128422 L215.814919,206.969755 Z" id="Fill-24" fill="#FFFFFF"></path>
                <path d="M284.359856,169.972432 L284.359856,172.952788 L271.041658,172.952788 L270.911928,196.789144 C270.911928,198.885711 271.19373,200.472204 271.760937,201.548624 C272.805261,203.451117 274.849946,204.404167 277.896432,204.404167 C279.463279,204.404167 280.823279,204.169692 281.976432,203.700021 C283.129586,203.231793 284.446342,202.485802 285.926703,201.465656 L287.623279,202.37614 L286.187604,203.617774 C283.924541,205.549126 281.530306,206.914852 279.006342,207.714231 C276.481658,208.514332 274.044901,208.914742 271.695351,208.914742 C266.559495,208.914742 263.078414,207.466048 261.250667,204.56866 C260.248144,202.995875 259.748685,200.817784 259.748685,198.030779 L259.748685,172.952788 L252.633009,172.952788 C252.414631,172.86982 252.251027,172.786131 252.14364,172.703884 C252.03409,172.621637 251.980036,172.511975 251.980036,172.373455 C251.980036,172.097135 252.078054,171.882861 252.273369,171.731354 C252.469405,171.580569 253.089946,171.228496 254.13427,170.676578 C257.137514,169.103793 259.301838,167.827528 260.629405,166.848505 C261.956973,165.869482 265.079135,163.283765 269.997333,159.088468 C270.562378,159.088468 270.900396,159.116605 271.009946,159.171437 C271.118054,159.226989 271.172829,159.43477 271.172829,159.792615 L271.172829,169.972432 L284.359856,169.972432 Z" id="Fill-26" fill="#FFFFFF"></path>
                <path d="M325.813261,185.202045 C320.808577,186.250328 316.673802,187.409716 313.410378,188.678045 C307.142991,191.13462 304.009297,193.920182 304.009297,197.036894 C304.009297,199.5483 305.315243,201.396684 307.926414,202.582766 C309.623712,203.355451 311.517045,203.741433 313.606414,203.741433 C316.478486,203.741433 319.230198,203.23136 321.864432,202.209771 C324.496505,201.189625 325.813261,199.893159 325.813261,198.321095 L325.813261,185.202045 Z M301.855063,189.877835 C305.858667,188.222803 313.844973,185.974008 325.813261,183.132894 L325.813261,179.615049 C325.813261,176.800629 325.377946,174.842584 324.507315,173.738748 C323.027676,171.890364 319.959568,170.966173 315.302991,170.966173 C313.083892,170.966173 310.97218,171.32546 308.970739,172.042593 C306.968577,172.786419 305.968216,173.808008 305.968216,175.104474 C305.968216,175.435625 306.075604,175.994036 306.294703,176.780428 C306.51164,177.566821 306.620468,178.070401 306.620468,178.290447 C306.620468,179.836538 305.814703,180.912958 304.205333,181.518985 C303.291459,181.878273 302.203171,182.057195 300.941189,182.057195 C298.98227,182.057195 297.481009,181.64957 296.436685,180.835762 C295.39236,180.021953 294.869838,179.118684 294.869838,178.125232 C294.869838,176.195323 296.75236,174.173068 300.516685,172.062794 C304.281009,169.951798 309.796685,168.897022 317.065874,168.897022 C325.508396,168.897022 331.23236,170.635022 334.234883,174.111022 C335.844252,176.014958 336.650018,178.787533 336.650018,182.428748 L336.650018,199.023798 C336.650018,200.624721 336.823712,201.727835 337.172541,202.334584 C337.737586,203.410282 338.913081,203.948492 340.697586,203.948492 C341.698667,203.948492 342.525333,203.852538 343.178306,203.658465 C343.831279,203.465835 344.96209,202.996163 346.572901,202.252337 L346.572901,204.403734 C345.179748,205.479433 343.678486,206.362501 342.069117,207.052218 C339.630919,208.101223 337.149477,208.625004 334.626955,208.625004 C331.666234,208.625004 329.522811,208.018255 328.196685,206.803314 C326.868396,205.590538 326.139748,204.141844 326.009297,202.458675 C322.70191,204.279643 319.873081,205.63094 317.522811,206.51473 C313.56173,208.003826 309.796685,208.749095 306.229117,208.749095 C302.485694,208.749095 299.243892,207.914364 296.50227,206.245625 C293.759928,204.576163 292.389117,202.458675 292.389117,199.893159 C292.389117,195.892657 295.544432,192.554456 301.855063,189.877835 L301.855063,189.877835 Z" id="Fill-28" fill="#FFFFFF"></path>
                <path d="M349.576649,206.9699 C353.623495,206.720995 356.365838,206.203708 357.801514,205.417315 C359.23791,204.630922 359.955748,203.093489 359.955748,200.803571 L359.955748,160.372164 C359.955748,158.551196 359.716468,157.295854 359.23791,156.606137 C358.366559,155.44747 356.604396,154.868137 353.949982,154.868137 C353.340252,154.868137 352.677189,154.90926 351.959351,154.992228 C351.241514,155.074475 350.33773,155.199288 349.250162,155.364502 L349.250162,153.998776 C355.124757,153.006046 362.197189,151.681443 370.466018,150.026411 C370.770162,150.026411 370.956108,150.109379 371.021694,150.274594 C371.086559,150.439808 371.119712,150.799096 371.119712,151.350292 L371.119712,200.968785 C371.119712,203.369808 371.771964,204.92095 373.077189,205.624374 C374.383135,206.327799 377.081514,206.776548 381.173045,206.9699 L381.173045,208.127845 L349.576649,208.127845 L349.576649,206.9699 Z" id="Fill-30" fill="#FFFFFF"></path>
            </g>
        </g>
    </g>
</svg>